<svg viewBox="0 0 330 200" xmlns="http://www.w3.org/2000/svg"><g><g><g><g><g><line x1="48.875" y1="177" x2="43.875" y2="177" style="visibility: inherit;" fill="rgb(0, 0, 0)" stroke="rgb(204, 204, 204)" stroke-width="1px"></line><line x1="48.875" y1="160.90909090909093" x2="43.875" y2="160.90909090909093" style="visibility: inherit;" fill="rgb(0, 0, 0)" stroke="rgb(204, 204, 204)" stroke-width="1px"></line><line x1="48.875" y1="144.8181818181818" x2="43.875" y2="144.8181818181818" style="visibility: inherit;" fill="rgb(0, 0, 0)" stroke="rgb(204, 204, 204)" stroke-width="1px"></line><line x1="48.875" y1="128.72727272727275" x2="43.875" y2="128.72727272727275" style="visibility: inherit;" fill="rgb(0, 0, 0)" stroke="rgb(204, 204, 204)" stroke-width="1px"></line><line x1="48.875" y1="112.63636363636365" x2="43.875" y2="112.63636363636365" style="visibility: inherit;" fill="rgb(0, 0, 0)" stroke="rgb(204, 204, 204)" stroke-width="1px"></line><line x1="48.875" y1="96.54545454545455" x2="43.875" y2="96.54545454545455" style="visibility: inherit;" fill="rgb(0, 0, 0)" stroke="rgb(204, 204, 204)" stroke-width="1px"></line><line x1="48.875" y1="80.45454545454548" x2="43.875" y2="80.45454545454548" style="visibility: inherit;" fill="rgb(0, 0, 0)" stroke="rgb(204, 204, 204)" stroke-width="1px"></line><line x1="48.875" y1="64.36363636363639" x2="43.875" y2="64.36363636363639" style="visibility: inherit;" fill="rgb(0, 0, 0)" stroke="rgb(204, 204, 204)" stroke-width="1px"></line><line x1="48.875" y1="48.27272727272731" x2="43.875" y2="48.27272727272731" style="visibility: inherit;" fill="rgb(0, 0, 0)" stroke="rgb(204, 204, 204)" stroke-width="1px"></line><line x1="48.875" y1="32.181818181818215" x2="43.875" y2="32.181818181818215" style="visibility: inherit;" fill="rgb(0, 0, 0)" stroke="rgb(204, 204, 204)" stroke-width="1px"></line><line x1="48.875" y1="16.090909090909093" x2="43.875" y2="16.090909090909093" style="visibility: inherit;" fill="rgb(0, 0, 0)" stroke="rgb(204, 204, 204)" stroke-width="1px"></line><line x1="48.875" y1="0" x2="43.875" y2="0" style="visibility: inherit;" fill="rgb(0, 0, 0)" stroke="rgb(204, 204, 204)" stroke-width="1px"></line></g><g transform="translate(38.875, 0)"><text x="0" y="177" dx="0em" dy="0.3em" style="text-anchor: end; visibility: hidden; font-family: &quot;Helvetica Neue&quot;, sans-serif; font-size: 12px; font-weight: 200;" fill="rgb(50, 49, 63)" stroke="none" stroke-width="1px">0.55</text><text x="0" y="160.90909090909093" dx="0em" dy="0.3em" style="text-anchor: end; visibility: inherit; font-family: &quot;Helvetica Neue&quot;, sans-serif; font-size: 12px; font-weight: 200;" fill="rgb(50, 49, 63)" stroke="none" stroke-width="1px">0.6</text><text x="0" y="144.8181818181818" dx="0em" dy="0.3em" style="text-anchor: end; visibility: hidden; font-family: &quot;Helvetica Neue&quot;, sans-serif; font-size: 12px; font-weight: 200;" fill="rgb(50, 49, 63)" stroke="none" stroke-width="1px">0.65</text><text x="0" y="128.72727272727275" dx="0em" dy="0.3em" style="text-anchor: end; visibility: inherit; font-family: &quot;Helvetica Neue&quot;, sans-serif; font-size: 12px; font-weight: 200;" fill="rgb(50, 49, 63)" stroke="none" stroke-width="1px">0.7</text><text x="0" y="112.63636363636365" dx="0em" dy="0.3em" style="text-anchor: end; visibility: hidden; font-family: &quot;Helvetica Neue&quot;, sans-serif; font-size: 12px; font-weight: 200;" fill="rgb(50, 49, 63)" stroke="none" stroke-width="1px">0.75</text><text x="0" y="96.54545454545455" dx="0em" dy="0.3em" style="text-anchor: end; visibility: inherit; font-family: &quot;Helvetica Neue&quot;, sans-serif; font-size: 12px; font-weight: 200;" fill="rgb(50, 49, 63)" stroke="none" stroke-width="1px">0.8</text><text x="0" y="80.45454545454548" dx="0em" dy="0.3em" style="text-anchor: end; visibility: hidden; font-family: &quot;Helvetica Neue&quot;, sans-serif; font-size: 12px; font-weight: 200;" fill="rgb(50, 49, 63)" stroke="none" stroke-width="1px">0.85</text><text x="0" y="64.36363636363639" dx="0em" dy="0.3em" style="text-anchor: end; visibility: inherit; font-family: &quot;Helvetica Neue&quot;, sans-serif; font-size: 12px; font-weight: 200;" fill="rgb(50, 49, 63)" stroke="none" stroke-width="1px">0.9</text><text x="0" y="48.27272727272731" dx="0em" dy="0.3em" style="text-anchor: end; visibility: hidden; font-family: &quot;Helvetica Neue&quot;, sans-serif; font-size: 12px; font-weight: 200;" fill="rgb(50, 49, 63)" stroke="none" stroke-width="1px">0.95</text><text x="0" y="32.181818181818215" dx="0em" dy="0.3em" style="text-anchor: end; visibility: inherit; font-family: &quot;Helvetica Neue&quot;, sans-serif; font-size: 12px; font-weight: 200;" fill="rgb(50, 49, 63)" stroke="none" stroke-width="1px">1</text><text x="0" y="16.090909090909093" dx="0em" dy="0.3em" style="text-anchor: end; visibility: hidden; font-family: &quot;Helvetica Neue&quot;, sans-serif; font-size: 12px; font-weight: 200;" fill="rgb(50, 49, 63)" stroke="none" stroke-width="1px">1.05</text><text x="0" y="0" dx="0em" dy="0.3em" style="text-anchor: end; visibility: hidden; font-family: &quot;Helvetica Neue&quot;, sans-serif; font-size: 12px; font-weight: 200;" fill="rgb(50, 49, 63)" stroke="none" stroke-width="1px">1.1</text></g><line x1="48.875" y1="0" x2="48.875" y2="177" fill="rgb(0, 0, 0)" stroke="rgb(204, 204, 204)" stroke-width="1px"></line></g></g><g transform="translate(48, 0)" clip-path="url(#clip_0)"><clipPath id="clip_0"><rect width="281" height="177"></rect></clipPath><g><g><g><line x1="0" y1="0" x2="0" y2="177" fill="rgb(0, 0, 0)" stroke="rgb(60, 60, 60)" stroke-width="1px" opacity="0.25"></line><line x1="31.23611111111111" y1="0" x2="31.23611111111111" y2="177" fill="rgb(0, 0, 0)" stroke="rgb(60, 60, 60)" stroke-width="1px" opacity="0.25"></line><line x1="62.47222222222222" y1="0" x2="62.47222222222222" y2="177" fill="rgb(0, 0, 0)" stroke="rgb(60, 60, 60)" stroke-width="1px" opacity="0.25"></line><line x1="93.70833333333333" y1="0" x2="93.70833333333333" y2="177" fill="rgb(0, 0, 0)" stroke="rgb(60, 60, 60)" stroke-width="1px" opacity="0.25"></line><line x1="124.94444444444444" y1="0" x2="124.94444444444444" y2="177" fill="rgb(0, 0, 0)" stroke="rgb(60, 60, 60)" stroke-width="1px" opacity="0.25"></line><line x1="156.18055555555557" y1="0" x2="156.18055555555557" y2="177" fill="rgb(0, 0, 0)" stroke="rgb(60, 60, 60)" stroke-width="1px" opacity="0.25"></line><line x1="187.41666666666666" y1="0" x2="187.41666666666666" y2="177" fill="rgb(0, 0, 0)" stroke="rgb(60, 60, 60)" stroke-width="1px" opacity="0.25"></line><line x1="218.65277777777777" y1="0" x2="218.65277777777777" y2="177" fill="rgb(0, 0, 0)" stroke="rgb(60, 60, 60)" stroke-width="1px" opacity="0.25"></line><line x1="249.88888888888889" y1="0" x2="249.88888888888889" y2="177" fill="rgb(0, 0, 0)" stroke="rgb(60, 60, 60)" stroke-width="1px" opacity="0.25"></line><line x1="281.125" y1="0" x2="281.125" y2="177" fill="rgb(0, 0, 0)" stroke="rgb(60, 60, 60)" stroke-width="1px" opacity="0.25"></line></g><g><line x1="0" y1="177" x2="281.125" y2="177" fill="rgb(0, 0, 0)" stroke="rgb(60, 60, 60)" stroke-width="1px" opacity="0.25"></line><line x1="0" y1="160.90909090909093" x2="281.125" y2="160.90909090909093" fill="rgb(0, 0, 0)" stroke="rgb(60, 60, 60)" stroke-width="1px" opacity="0.25"></line><line x1="0" y1="144.8181818181818" x2="281.125" y2="144.8181818181818" fill="rgb(0, 0, 0)" stroke="rgb(60, 60, 60)" stroke-width="1px" opacity="0.25"></line><line x1="0" y1="128.72727272727275" x2="281.125" y2="128.72727272727275" fill="rgb(0, 0, 0)" stroke="rgb(60, 60, 60)" stroke-width="1px" opacity="0.25"></line><line x1="0" y1="112.63636363636365" x2="281.125" y2="112.63636363636365" fill="rgb(0, 0, 0)" stroke="rgb(60, 60, 60)" stroke-width="1px" opacity="0.25"></line><line x1="0" y1="96.54545454545455" x2="281.125" y2="96.54545454545455" fill="rgb(0, 0, 0)" stroke="rgb(60, 60, 60)" stroke-width="1px" opacity="0.25"></line><line x1="0" y1="80.45454545454548" x2="281.125" y2="80.45454545454548" fill="rgb(0, 0, 0)" stroke="rgb(60, 60, 60)" stroke-width="1px" opacity="0.25"></line><line x1="0" y1="64.36363636363639" x2="281.125" y2="64.36363636363639" fill="rgb(0, 0, 0)" stroke="rgb(60, 60, 60)" stroke-width="1px" opacity="0.25"></line><line x1="0" y1="48.27272727272731" x2="281.125" y2="48.27272727272731" fill="rgb(0, 0, 0)" stroke="rgb(60, 60, 60)" stroke-width="1px" opacity="0.25"></line><line x1="0" y1="32.181818181818215" x2="281.125" y2="32.181818181818215" fill="rgb(0, 0, 0)" stroke="rgb(60, 60, 60)" stroke-width="1px" opacity="0.25"></line><line x1="0" y1="16.090909090909093" x2="281.125" y2="16.090909090909093" fill="rgb(0, 0, 0)" stroke="rgb(60, 60, 60)" stroke-width="1px" opacity="0.25"></line><line x1="0" y1="0" x2="281.125" y2="0" fill="rgb(0, 0, 0)" stroke="rgb(60, 60, 60)" stroke-width="1px" opacity="0.25"></line></g></g></g><g><g><line x1="0" y1="354" x2="281.125" y2="354" fill="rgb(0, 0, 0)" stroke="rgb(153, 153, 153)" stroke-width="1.5px"></line></g></g><g><g><line x1="31.23611111111111" y1="0" x2="31.23611111111111" y2="177" fill="rgb(0, 0, 0)" stroke="rgb(153, 153, 153)" stroke-width="1.5px"></line></g></g><g><g><g><g><g><path style="fill: none;" stroke="rgb(255, 112, 67)" stroke-width="2px" d="M37.35370347222222,180.424498745494L37.53643472222222,169.40015347689047L37.62545763888889,162.78554651787908L37.65669375,142.72587315836893L37.87378472222222,146.78097846557154L38.17052777777778,157.25949620916077L38.21425833333333,155.50115226703358L38.46883263888889,178.58250957289232L38.63126041666666,128.06768752140184L39.3575,121.89515796441614L39.41997222222222,150.3734584232361L39.75263680555556,143.32407505272042L39.80105277777778,155.18535412377426L39.84322152777778,162.3021215656175L40.24304375,174.617636576195L40.269594444444444,157.87058194534097L40.58351736111111,163.91325825819507L41.292577083333335,135.35704586377713L41.41595972222222,150.40513660924836L42.39989722222222,119.20671832909457L42.691954861111114,132.6694855429348L42.77785416666667,140.74714587122392L42.85125902777778,113.41192388635355L43.319800694444446,113.10169978635747L43.82270208333334,120.96101987181623L44.40057013888889,125.67661192309038L44.58798680555555,136.55142169930966L44.759785416666666,126.98539847413079L44.93626944444445,113.20032999356897L46.488704166666665,112.97474345068686L46.57460347222222,128.93030061586683L46.64488472222222,162.6399985513385L46.90414444444444,142.63854458534848L47.04626875,130.63767220575448L47.10717916666667,115.39169423254361L47.27585416666666,106.24410744861711L47.307090277777775,92.71010083280665L47.46327083333333,116.77151504513853L47.46639444444444,99.02654539071946L47.522619444444445,128.6068363253408L47.69910347222222,154.4004654315681L47.74908125,129.64937016803182L47.88495833333334,146.98053119172818L48.29883680555555,125.1974096241278L48.67523194444444,112.12753668356761L48.69709722222222,120.37652201014056L49.421775000000004,117.28045866062979L49.479561805555555,123.46827519637787L49.53110138888889,119.13551057237217L49.72164166666667,132.62676088887787L49.74506875,148.76696562423584L50.09335138888889,134.31472482908697L50.19955416666667,93.46156217017945L50.20111597222222,109.17693730210767L50.23079027777778,86.42434419944644L50.546274999999994,104.95460651966788L50.70870277777778,140.20912754816436L50.95702986111112,129.18002198344405L51.394335416666664,138.653467735521L51.42088611111111,104.11026245949446L52.16274375,115.56615747569666L52.16430555555556,114.39423993996347L52.79215138888889,97.60018032761442L53.5262,111.66010819656867L53.86042638888889,87.91424673612303L53.880729861111114,97.80309349621928L53.93226944444445,87.64549246136794L54.04003402777778,97.64184093136619L54.088449999999995,103.63965001336517L54.530440972222216,115.2837900080191L54.66787986111111,130.31572855026602L54.688183333333335,115.19852803925053L54.80063333333333,130.2645713690049L55.03178055555555,99.07692463958479L55.14266875,104.50070023829635L55.21607361111111,91.6640565066142L55.22700625,83.96207026760486L55.762705555555556,103.47724216056294L55.790818055555555,91.04998165997414L56.17658402777778,99.68453445052992L56.565473611111116,96.81981157940886L56.73883402777778,103.14643240219078L56.92468888888889,131.07876853222356L56.93093611111111,107.61089748297049L57.034015277777776,109.62108394432774L57.14802708333334,102.7817412756876L57.299522222222215,114.76904476541257L57.3213875,138.05233595015665L57.58220902777778,160.06776520645764L57.59157986111111,108.91338639660185L57.61969236111111,78.22075911068839L57.66186111111111,91.9870009209585L57.69153541666667,132.42856418893874L57.719647916666666,124.5116839679087L57.816479861111105,111.71610128983615L58.07105416666667,136.22056986481078L58.19756041666666,134.83234191888647L58.25534722222222,117.90849606042282L58.94566527777778,107.75418854534462L59.31268958333333,117.75251312720677L59.378285416666664,115.70605333086954L59.84057986111111,106.43272290761266L59.86400694444444,92.82327010820396L60.01394027777778,108.79396206492238L60.28881805555556,118.37637723895344L60.51215625,116.08037179791754L60.72768541666667,122.74822307875056L60.81514652777778,94.56711566543218L61.266508333333334,85.70390576289567L61.47422847222222,88.43143436682831L61.56793680555556,73.97704243827886L61.924028472222226,57.25895273569459L62.241075,79.40991709596221L62.40194097222222,92.70049571212279L62.70493125,84.58393379091002L62.864235416666666,87.75945118363697L63.036034027777774,97.71021616472765L63.09225902777778,87.58976606247295L63.285922916666664,73.47204145566558L63.46553055555555,81.09231578249026L64.14023055555556,85.6644803785851L64.40105208333334,80.36232459078744L65.31470833333333,61.09012202719974L65.37093333333334,73.6631641254108L65.44433819444444,81.20698938433742L65.59114791666667,77.6878299942388L65.65362013888888,91.66724345108872L65.75357569444444,83.96398243428962L65.79262083333333,103.47838946057378L65.83478958333333,99.09612458543516L66.23461180555556,80.37585656944293L66.35018541666668,101.32551394166576L66.66879375,89.7589447286358L66.77343472222222,82.81900320081782L66.89213194444444,118.88231101139979L67.42002222222222,116.38393206138531L67.48093263888889,82.70308650955847L68.17437430555556,70.54003372391692L68.5210951388889,55.19674750707745L68.69757916666667,62.0816848678828L68.86156875,66.21264728436608L69.71431458333333,76.73667927971053L69.775225,83.05109847691723L70.32654236111111,102.93065908615033L70.92159027777778,98.76748636078112L71.04653472222223,88.22412818010503L71.16835555555556,97.98902236260847L71.24019861111111,95.80250432665598L71.686875,78.39968441417541L72.07264097222222,76.00344701214163L72.37719305555555,58.474795480012276L72.55211527777779,72.09396819709828L72.57710416666666,56.12910819098626L72.69736319444445,70.68655582368267L72.70829583333334,103.55738803966418L72.99098263888888,83.05261464198034L73.17683749999999,86.84065969427914L73.29865833333334,89.1134867256584L74.03583055555556,122.65900112630416L74.42003472222223,94.51358249396434L74.61057500000001,93.71724040546951L74.78549722222222,85.19398060691807L75.23061180555555,80.08002472778719L75.37429791666666,77.01165120030869L75.4430173611111,91.26153617473068L75.58201805555557,91.76601261392935L75.60856875,116.20506211381216L75.98652569444445,82.59576454101459L76.12708819444444,86.5665496336997L77.09072222222221,96.9944752347653L77.1125875,103.25123059540464L77.12508194444445,74.82346562997007L77.51709513888888,89.94862483252749L77.55301666666666,82.93281126315283L77.64828680555556,78.72332312152807L77.81071458333334,76.19763023655317L78.23084027777779,74.68221450556828L78.23552569444445,89.86387415788643L78.32298680555556,82.88196085836826L78.4619875,86.73826742411185L79.03204652777777,72.96114227264897L79.08827152777778,88.83123081813484L79.76140972222223,90.30782939997182L80.08001805555554,83.14833400361945L80.83437013888889,86.89809131126258L80.95775277777778,113.2843093322121L81.10924791666666,96.93422196296363L81.62152013888888,87.12416954141453L81.90889236111111,97.32904717939418L82.22437708333332,95.40651921672745L82.46489513888888,118.38936607549101L82.49769305555556,83.9063469180219L83.39104583333334,63.21653542354042L83.5394173611111,91.02992125412428L83.57377708333334,75.53613457065639L83.90175624999999,98.42168074239382L84.55771458333334,104.10755389998172L84.63424305555556,91.4281687036254L84.79979444444444,107.95690122217523L85.25271805555556,109.8286861878506L85.26365069444444,110.95175716725583L85.47449444444445,111.62559975489897L85.68065277777777,128.12081439839397L85.83370972222222,105.83612500267273L86.26164444444444,100.51076591069456L86.35379097222223,81.22464136459857L86.41313958333333,77.69842118239552L86.67864652777777,67.53723452761913L87.01599652777779,77.53143162566238L87.38926805555556,99.61885897539744L87.42831319444446,96.78040629432938L87.44549305555554,95.07733468568854L87.47204375,77.96458262959494L87.49078541666665,83.78784048684793L87.69382013888888,87.28179520119966L87.77503402777778,73.28725893890164L87.77815763888889,64.8905371815228L88.02648472222224,59.852504127095514L88.24982291666667,89.01150247625732L88.38257638888889,82.37053784939074L88.96512986111112,78.38595907327083L89.16972638888889,92.08612089850796L90.1849,76.16985435728661L90.75652083333334,90.75645806891744L90.96267916666666,99.50842029589593L91.07512916666667,104.75959763208301L91.11105069444444,107.91030403379524L91.20319722222223,109.80072787482261L91.29378194444445,118.98043672489358L91.29846736111111,108.39735294402705L91.52180555555555,94.00204813005259L92.06999930555556,85.36486524166793L92.31051736111111,88.22801005409165L92.75250833333334,97.99135148700047L92.80560972222221,119.94026543765484L92.86652013888889,117.01870471713833L92.87745277777778,107.22031373937392L92.90712708333334,85.25037006180617L92.93211597222222,96.20476749162914L93.39441041666666,102.77740594952292L93.73332222222223,98.67553447880466L93.78798541666667,104.25986614182828L93.83796319444444,91.5195560487333L94.01444722222223,75.82991544742185L94.02694166666667,82.50704017754406L94.13939166666665,102.60422410652646L94.15969513888889,90.52617082755224L94.18780763888888,91.32479340562227L94.48767430555556,91.80396695246426L94.50173055555555,76.0005619896604L94.8765638888889,114.79124628470535L95.8464451388889,89.79292958900506L95.87299583333333,115.02121229885762L95.93390624999999,81.88545465204183L96.2603236111111,94.18581824577055L97.15211458333334,125.70240003837142L97.30204791666667,128.52144002302288L97.68312847222222,98.03104583199554L98.01110763888889,103.8731729537428L98.03453472222222,99.3329946813366L98.15010833333334,128.79070589971107L98.40624444444444,130.37442353982667L99.00441597222222,131.32465412389598L99.07001180555557,99.71297429251942L99.18246180555555,96.83687548460259L99.48232847222222,87.06576165439795L99.69629583333334,97.29400244718421L100.0633201388889,79.29458328649235L100.48344583333333,76.54038633553178L100.59277222222222,90.97877725586451L101.0082125,83.55090271715505L101.02070694444446,79.09417799392939L101.49705763888889,100.55650679635765L101.5454736111111,113.43390407781459L101.70321597222222,88.97852426487059L102.53409652777778,106.48711455892236L102.78710902777777,92.85590509898981L102.80428888888889,100.76808851393932L103.17443680555554,105.51539856290903L103.64922569444444,84.22742095592724L103.6960798611111,79.50008893719269L103.960025,68.61823518049745L104.03499166666667,78.18003201738942L104.22865555555556,100.00801921043363L104.56444375,105.05935698080566L105.06109791666665,116.1356141884834L105.25476180555555,106.69045942218098L105.46716736111111,109.06882110785405L105.67332569444444,78.31401993743971L105.71705625,83.99750287155473L105.7982701388889,87.40759263202375L106.43861041666666,73.36273739739607L106.62134166666667,64.9358242566195L106.67288125,75.97058546306265L107.1617263888889,74.54598764147397L107.45066041666666,81.73668349397533L107.60684097222223,69.96019191456705L107.7552125,111.16702423964932L107.93169652777777,95.66385090742597L108.13629305555554,102.45285599900106L108.58921666666666,98.48080450849154L108.94218472222222,88.05211906873129L109.02652222222223,73.74945325942063L109.23736597222222,73.21330831928873L109.78712152777777,72.8916213552096L109.99796527777778,80.74406372221665L110.04325763888889,101.54643823333001L110.10572986111112,89.89149930363436L110.16507847222222,74.85308140036247L110.29158472222223,73.87548520385387L110.369675,89.37983657685776L110.49774305555556,74.5460837642965L110.82884583333333,73.69128662221429L110.8444638888889,89.26931742787403L111.42389374999999,74.47977227490625L111.57695069444445,89.74240881948919L111.60037777777778,74.76362710987534L111.64410833333334,73.82181262956155L111.67065902777779,73.25672394137331L111.67846805555554,97.05403436482399L111.831525,87.19605698253078L112.07360486111112,97.37217964406392L112.40939305555555,111.52330778643834L112.66709097222221,95.87762103549935L112.71238333333332,86.49020898493596L113.15125069444444,96.94867084550704L113.17311597222222,111.26920250730424L113.30430763888889,95.72515786801888L113.5713763888889,94.44418562990225L113.70881527777777,85.63014774157774L113.83688333333333,104.47808864494664L113.84781597222222,107.74139864151343L114.17735694444444,93.60847554854443L114.2210875,77.08326714730852L114.31791944444444,83.25905119747603L114.45535833333334,86.96452162757656L114.53344861111111,105.27871297654595L115.4471048611111,116.26722778592757L116.03278194444445,138.95124576246565L116.54505416666667,112.33438382111576L116.54505416666667,112.45517574721492L116.59034652777777,120.57310544832893L116.99797777777778,125.44386326899738L117.31190069444445,112.27540887048936L117.46339583333334,104.37433623138455L117.5945875,107.67914719337621L117.63675624999999,93.57112467966209L118.0693763888889,117.2881293532518L118.16933194444445,91.29105943013292L118.46295138888888,91.78372656717065L118.63162638888889,84.03387230393875L119.21730347222223,79.38395974599965L119.24697777777777,92.68492130214524L119.40315833333334,84.57458914492351L119.7311375,79.70838985059048L119.93885763888889,92.87957936489974L120.05755486111111,76.64592943712171L120.24497152777778,82.99664857136398L120.48861319444444,78.76162550645476L120.61824305555557,76.22061166750923L121.11645902777776,82.74145790959643L121.43662916666666,78.6085111093942L121.446,76.12874302927285L121.727125,66.59542763574557L121.85206944444445,85.01180203599282L122.34716180555556,79.97071758523205L122.3768361111111,93.0369760056847L122.43306111111112,92.83127651250176L122.63921944444444,76.61694772568289L122.72355694444445,91.0247140899552L123.09839027777777,99.6693739085186L123.24676180555555,88.76526070874752L123.33734652777778,74.17733824343034L123.53257222222221,73.4700393096946L123.89178749999999,73.04565994945317L124.16354166666666,80.83648687876284L124.40093611111112,85.51098303634859L124.9288263888889,88.3156807309001L125.87684236111112,89.99849934763098L125.87684236111112,91.00819051766952L125.98616875,115.75036885605627L126.00959583333334,98.41385767727014L126.04083194444445,104.10286006090755L126.37818194444445,91.42535240018091L126.66711597222222,75.7733932582904L126.99353333333333,74.42767231861063L127.00290416666667,73.62023975480277L127.08411805555555,89.22668930742712L127.34181597222222,98.59055903900172L127.78224513888888,88.1179717870374L127.80879583333333,81.83441943585883L128.22267430555556,102.20065166151532L128.66310347222222,82.23857281509106L128.70839583333333,102.44314368905464L128.88331805555555,90.42952257706915L129.07698194444444,83.22134990987786L130.3607861111111,86.94190085501764L130.835575,89.17423142210151L130.9089798611111,90.51362976235185L131.09795833333334,83.27181422104748L131.28068958333333,78.92672489626484L131.43062291666666,60.22876221048621L131.51183680555556,57.05543914447355L132.08814305555558,79.28780894122959L132.22245833333332,100.67268536473777L132.29117777777776,81.32179303702449L132.36614444444444,101.8930758222147L132.3989423611111,106.19039094787426L132.69568541666666,108.76878002327001L132.80969722222224,110.31581346850747L133.47815,95.15312444474085L134.06695069444444,78.01005648502635L134.10911944444445,67.72421570919767L134.2200076388889,77.64362033460952L134.84472986111112,75.54980856440208L135.0321465277778,82.33897604773216L135.34606944444445,62.27611290136659L135.76931875,82.42021319536539L135.88333055555555,78.41576428085563L136.17226458333334,76.01309493214973L136.18163541666667,98.70785695928986L136.24879305555555,96.23380508466484L136.5627159722222,110.8402830507989L136.64549166666666,79.37689710320663L137.13902222222222,68.54432008010579L137.34049513888888,94.2265920480635L137.60287847222222,109.63595522883809L137.72001388888887,86.6997549554847L137.96521736111112,72.93803479147269L137.96990277777778,80.7719117839745L138.23853333333335,77.42678343402106L138.2635222222222,75.41970642404898L138.6617826388889,66.17000567261123L138.75705277777777,76.71109431265762L138.97570555555555,74.99029295123094L139.73474305555555,65.9123575889204L139.98463194444446,76.55650546244314L140.09708194444443,66.85208509564771L140.1330034722222,77.12034196647957L140.54375833333333,67.19038699806957L140.57499444444443,61.232414017023586L140.59842152777776,65.70308477385056L140.60623055555556,76.43094177340126L140.66557916666665,82.86765597313166L140.6921298611111,78.68422994751539L141.1497388888889,84.21962887760012L141.33559375000002,111.67723187201463L141.51832499999998,95.96997548684514L142.01029375,94.59107620119799L142.03840624999998,85.71828208435514L142.27892430555556,80.39460561424949L142.27892430555556,61.10949064127699L142.71154444444446,73.67478529385713L142.8224326388889,57.07759844904156L143.05201805555555,63.210195433061315L143.1738388888889,91.02611725983681L143.5252451388889,99.67021581044753L143.62363888888888,104.85667494081396L143.86415694444443,99.92309587357931L143.90944930555554,96.96294843323854L144.0031576388889,87.14140542357947L145.02301666666668,97.33938870869314L145.0854888888889,95.41272413430679L145.49312013888888,102.30217993512952L145.79298680555556,98.39039887016864L146.4130236111111,96.04333023119212L146.95809375000002,70.49872541144255L147.03618402777778,111.49014433777465L147.14238680555556,111.94863205721022L147.23765694444444,104.17827014341705L147.28294930555555,115.60696208605023L147.33605069444442,90.28235906981196L147.33917430555556,67.04214271461447L147.93734583333332,69.18892199240504L148.1247625,62.43153501362485L148.28406666666666,58.37710282635673L148.377775,72.03535260490494L148.96501388888888,80.23030247203386L149.04622777777777,85.14727239231125L149.1867902777778,72.00654525356859L149.19772291666666,80.21301806123203L149.22583541666668,69.04599265492108L149.25707152777778,70.39123195658902L149.3304763888889,87.28928462849888L149.36952152777778,65.24629804982663L149.5100840277778,60.065960648077834L149.57724166666668,48.91230366157396L149.69750069444447,66.35647310603531L150.34252638888887,92.91388386362121L150.53306666666666,100.80287577271818L151.14997986111112,81.39990728181274L151.20151944444444,93.89448982363308L151.2499354166667,85.3003302578162L152.01522013888888,64.05292542741702L152.42441319444444,51.304482529177506L152.73365069444444,51.70087133568835L152.83985347222222,51.938704619594816L152.85078611111112,52.08140458993874L153.36462013888888,52.16702457214507L153.5676548611111,60.263851106923426L153.75975694444446,65.12194702779044L153.87376875,76.08225912576519L153.88938680555557,90.70390093000456L153.9409263888889,75.3405223761846L154.06587083333335,74.16794978934716L154.1377138888889,57.37349714633558L154.17519722222224,47.296825560528646L154.32513055555555,41.25082260904446L154.562525,37.62322083815397L155.38872013888889,43.49211432107421L155.51210277777778,55.05890495628093L155.71982291666666,45.90807024649584L155.80884583333335,40.41756942062477L156.00875694444446,37.12326892510214L156.3398597222222,35.14668862778856L156.3789048611111,50.0516495403095L156.5132201388889,42.903716996912976L156.5413326388889,46.660412016329616L156.73499652777775,48.91442902797962L157.08640277777778,42.22138468951505L157.10826805555556,38.2055580864363L157.24726875000002,35.79606212458907L157.7048777777778,34.35036454748072L157.72205763888888,33.48294600121571L157.8548111111111,41.00794941891127L157.8548111111111,37.47749692407402L157.9047888888889,35.35922542717171L158.19840833333333,50.17917161993938L158.35927430555554,42.980230244690915L158.75597291666665,38.660865419541835L159.27136875,36.06924652445238L159.79145,42.55972973285324L159.97574305555554,46.45401965789381L160.44740833333333,40.745139067463555L160.55204930555556,37.319810713205385L160.71135347222224,35.26461370065053L160.8644104166667,34.031495493117575L161.10024305555555,33.291624568597825L161.11742291666667,32.84770201388599L161.26735625,40.62680302651344L161.54691944444443,45.2942636340899L161.60626805555555,56.14019454409029L161.76401041666668,54.602298544636014L161.83116805555557,45.63410639950888L161.95767430555554,40.2531911124326L162.15133819444446,37.024641940186854L162.45745208333332,35.087512436839376L162.56990208333335,33.925234734830894L162.7323298611111,33.227868113625846L162.85727430555553,32.80944814090279L162.99158958333334,32.55839615726893L163.11341041666668,32.40776496708867L163.46169305555554,40.36284079843503L163.64286249999998,45.13588629724285L163.89118958333333,47.99971359652753L163.96147083333335,41.6725554306438L164.13795486111113,37.87626053111356L164.3769111111111,43.643938136849954L164.93759930555558,39.059090154837264L165.2562076388889,36.30818136562965L165.28588194444447,34.657636092105065L165.29369097222224,33.66730892799035L165.73255833333334,33.07311262952149L165.87780625,40.762049395894735L166.31198819444444,37.329956910264144L166.4056965277778,35.27070141888575L166.46973055555554,34.035148124058736L166.56343888888887,33.29381614716252L166.76803541666666,48.939926051933924L166.9148451388889,50.28213744934217L167.43805,59.13291883324169L167.61921944444444,48.35247857267228L168.0284125,41.88421441633065L168.10806458333332,38.00325592252568L168.7390340277778,35.67468082624268L168.8967763888889,34.27753576847289L169.1310472222222,33.43924873381101L169.52306041666665,32.936276513013894L169.99160208333333,40.67994772599013L170.0634451388889,37.28069590832138L170.1618388888889,35.24114481772011L170.38830069444447,34.01741416335935L170.75376319444445,33.2831757707429L170.78499930555554,32.84263273517303L171.17232708333333,32.578306913831085L171.77362222222223,32.41971142102594L172.04537638888888,32.32455412534284L172.27183819444443,32.267459747933L172.61855902777776,32.233203121487065L172.6216826388889,40.25810369107407L172.66541319444445,37.02758948737173L172.9418527777778,35.089280965150294L173.0777298611111,33.926295851817486L173.4291361111111,41.273959329272316L173.75399166666665,45.68255741574524L174.0132513888889,40.28226172217441L174.0554201388889,37.04208430603197L174.09915069444446,35.09797785634646L174.10227430555557,33.93151398653515L174.31780347222224,33.231635664648365L174.353725,32.8117086715163L174.35528680555555,32.559752475637026L174.5224,32.40857875810951L174.6098611111111,32.317874527593005L175.03935763888887,32.263451989283055L175.50477569444445,32.2307984662971L175.74997916666666,32.21120635250554L176.1841611111111,32.19945108423059L176.48871319444444,40.237852468720206L176.66675902777777,45.060893299413976L176.67612986111112,39.909263252375666L176.90415347222222,44.863739769607236L177.02285069444446,39.79097113449163L177.0447159722222,36.747309953422274L177.20714375,42.96656779023519L177.29304305555556,38.652667946868405L177.3367736111111,36.064328040848324L177.37581875,42.55677864269083L177.7350340277778,38.40679445834178L177.7928208333333,35.91680394773235L178.00210277777776,34.42280964136668L178.03802430555555,33.5264130575473L179.00790555555554,41.03402965271022L179.02508541666668,45.53859960980796L179.02977083333334,40.195887038612085L179.0797486111111,36.99025949589452L179.39367152777777,43.112337515718565L179.55609930555553,46.78558432761298L179.87314583333335,40.94407786929506L179.95435972222222,37.439173994304326L181.33811944444443,43.38168621476444L182.21116875,38.90173900158598L182.5235298611111,36.21377067367885L183.2169715277778,34.600989676934574L183.74486180555556,33.633321078888L183.82607569444446,33.05271992006013L183.9963125,32.70435922476335L184.68194513888886,32.4953428075853L184.8615527777778,40.41538750273298L184.90059791666664,37.12195977436707L185.07864375,43.19135768280208L185.17547569444446,46.832996427863065L186.01260347222222,40.9725251294451L186.17659305555557,37.45624235039435L186.5201902777778,35.346472682963906L186.5233138888889,34.08061088250565L186.83879861111112,41.36654834768524L186.8606638888889,45.73811082679296L187.15428333333332,48.36104831425763L187.15584513888888,49.934810806736394L187.58221805555556,58.92452284767819L187.62594861111108,48.22744098133418L188.51149236111112,41.80919186152781L188.8113590277778,37.95824238964397L188.91756180555555,35.647672706513674L189.24710277777777,34.26133089663546L189.3408111111111,33.429525810708554L189.53603680555554,40.975897304606974L189.73594791666667,37.45826565549146L189.94054444444447,35.347686666022184L190.64335694444443,42.126793817795146L191.12907847222223,38.148803563404385L191.25402291666668,35.762009410769906L191.55076597222222,34.32993291918925L191.6600923611111,33.47068702424082L192.18954444444446,32.95513948727179L192.92359305555553,32.645810965090334L193.35933680555556,32.4602138517815L193.51707916666666,32.348855583796166L193.92627222222222,32.282040623004974L193.9949916666667,32.241951646530254L194.00592430555554,32.217898260645455L194.24956597222223,40.248920774569115L194.3948138888889,37.02207973746877L194.42136458333334,35.08597511520853L194.76808541666665,33.92431234185241L195.20851458333334,33.227314677838734L195.21788541666666,32.80911607943054L195.3756277777778,40.60365146584013L195.4662125,37.23491815223139L195.94724861111112,35.213678164066096L196.19557569444444,34.00093417116693L196.5516673611111,33.273287775427434L197.64649305555554,32.836699937983724L197.7074034722222,32.57474723551755L198.24622638888889,40.46303015949238L198.41646319444442,37.150545368422684L198.44457569444447,35.16305449378089L198.82721805555553,33.970559968995815L198.87563402777778,33.25506325412479L198.91780277777778,32.82576522520213L199.38946805555554,40.613640953303104L199.87518958333334,37.24091184470913L199.9298527777778,35.21727437955278L199.95327986111113,42.04854644591347L201.04654374999998,54.19276423118443L201.12775763888888,45.38838581143793L201.2402076388889,40.10575875959006L201.36983750000002,36.93618252848131L201.64627708333336,35.034436789816084L201.66345694444445,33.893389346616914L201.7805923611111,33.20876088069744L202.46778680555556,40.843438346600294L202.65676527777777,37.37879028068744L202.73797916666666,35.300001441139756L202.87229444444444,34.05272813741115L202.9269576388889,33.30436415517397L203.1581048611111,32.855345765831686L203.24244236111113,32.585934732226264L203.5985340277778,40.46974265751763L203.68911875,45.20002741269241L204.02803055555557,39.9927437203427L204.55748263888887,44.91382805038745L204.63244930555555,47.8664786484143L205.79755624999999,41.59261446177587L206.81897708333335,37.82829594979282L207.10010208333333,43.61515938805752L207.9138027777778,39.04182290556179L207.99033125,36.29782101606432L207.99970208333335,34.65141988236587L208.18555694444444,41.70903374760135L208.8227736111111,45.94360206674264L208.8930548611111,40.43888851277285L209.12420208333333,45.18151492584553L209.25539375,48.02709077368917L209.25695555555555,49.73443628239535L209.41625972222224,50.758843587619026L209.73799166666666,43.328033425298685L209.74111527777777,38.86954732790653L210.02380208333332,36.19445566947118L210.06284722222222,34.58940067441L210.29087083333334,33.62636767737328L210.4111298611111,33.04854787915127L210.51108541666667,32.701856000218044L210.67351319444444,32.4938408728581L210.79533402777778,32.36903179644213L211.03429027777779,32.29414635059257L211.13424583333332,32.249215083082845L211.64339444444445,32.22225632257698L212.45397152777778,32.20608106627347L212.54299444444445,32.19637591249139L212.55705069444443,32.19055282022211L212.7460291666667,32.18705896486054L213.55504444444443,32.18496265164359L213.55660625000002,32.183704863713444L213.56597708333334,32.182950190955324L213.68155069444444,32.18249738730049L213.81898958333332,32.182225705107584L213.91894513888892,32.182062695791814L213.96267569444444,32.18196489020238L214.08918194444445,32.18190620684874L214.1375979166667,32.18187099683652L214.3265763888889,32.18184987082918L214.46713888888888,32.1818371952248L214.6842298611111,32.18182958986216L214.79511805555558,32.18182502664456L214.9169388888889,32.181822288714045L214.99034375000002,32.181820645955725L215.6759763888889,32.181819660300704L215.98677569444442,32.181819068907714L216.1070347222222,32.18181871407191L216.2382263888889,32.181818501170426L216.6286777777778,32.181818373429564L216.66147569444445,32.181818296784996L217.12845555555555,32.18181825079827L217.32992847222224,32.18181822320625L217.57200833333334,32.18181820665103L217.7281888888889,32.18181819671793L218.13738194444446,32.18181819075804L218.23265208333333,32.1818181871821L218.72774444444443,32.18181818503652L219.37589375,32.181818183749215L219.54456875,32.181818182976826L219.84912083333333,32.18181818251338L219.92564930555557,32.181818182235304L220.26612291666666,32.18181818206844L220.47071944444443,32.18181818196834L220.48165208333333,32.181818181908284L221.4421625,32.18181818187227L221.52181458333334,32.181818181850645L222.31208819444444,32.181818181837684L222.48076319444442,32.1818181818299L223.11641805555556,32.18181818182521L223.3788013888889,32.18181818182242L223.39129583333332,32.181818181820745L223.95823124999998,32.18181818181975L224.07224305555553,32.181818181819125L224.51579583333333,32.181818181818784L224.61575138888887,32.18181818181856L224.63761666666667,40.227272727272975L224.66260555555553,37.0090909090911L225.12958541666666,35.07818181818192L225.2404736111111,33.91963636363644L225.3107548611111,33.22450909090915L225.65122847222221,32.80743272727278L225.7121388888889,32.557186909090944L226.2103548611111,32.40703941818185L226.4821090277778,32.3169509236364L226.49772708333333,32.262897826909125L226.65234583333333,32.23046596887278L227.1411909722222,32.211006854050964L227.30830416666666,32.19933138515785L227.3957652777778,32.19232610382198L227.4925972222222,32.18812293502049L227.78621666666666,32.18560103373957L227.86586875,32.184087892971036L227.87523958333333,32.18318000850991L228.0767125,32.182635277833214L228.28911805555555,32.1823084394272L228.4812201388889,32.182112336383625L228.7764013888889,32.181994674557444L228.83887361111113,32.18192407746176L228.96225625,32.18188171920434L229.14811111111112,32.18185630424986L229.8165638888889,32.181841055277204L229.91651944444445,32.18183190589363L230.05552013888888,32.18182641626345L230.1258013888889,32.181823122485355L230.45690416666665,32.18182114621848L230.68336597222222,32.18181996045837L230.72865833333333,32.18181924900233L231.1440986111111,32.18181882212866L231.51112291666666,32.181818566004495L231.71884305555554,32.18181841232999L231.88595625,32.181818320125245L232.75900555555555,40.227272810257006L232.87145555555554,37.00909095888147L232.98390555555557,35.078181848056175L233.02763611111112,33.91963638156102L233.1541423611111,33.22450910166387L233.45869444444443,32.80743273372559L233.57739166666667,32.557186912962635L233.5867625,32.40703942050487L234.06623680555558,32.31695092503023L234.28176597222222,32.262897827745405L234.29894583333333,32.23046596937451L234.39421597222224,32.21100685435198L234.43638472222221,32.19933138533847L234.6862736111111,32.192326103930355L235.01581458333334,32.18812293508552L236.08721319444444,32.185601033778596L236.23402291666667,32.18408789299443L236.24495555555555,32.18318000852395L236.30118055555553,40.22808982329619L236.4995298611111,37.009581166705004L236.50733888888888,35.07847597275028L236.84937430555553,33.91981285637746L237.35383750000003,33.224614986553746L237.5615576388889,32.807496264659534L238.09100972222222,32.55722503152299L238.14567291666665,32.40706229164107L238.38931458333332,32.31696464771193L238.44397777777777,32.26290606135444L238.64545069444443,32.230470909539946L238.71885555555556,32.21100981845123L239.05464375000003,32.199333163798L239.1983298611111,32.1923271710061L239.2092625,32.18812357533096L239.35763402777778,32.18560141792585L239.47164583333333,32.18408812348278L239.6902986111111,32.18318014681694L239.80118680555557,32.18263536081744L239.8386701388889,32.182308489217746L239.8636590277778,32.18211236625794L240.24005416666668,32.18199469248208L240.24473958333334,32.181924088216505L240.36812222222224,32.181881725657206L240.3696840277778,32.18185630812161L240.4384034722222,32.18184105760025L240.74451736111112,32.18183190728746L241.05531666666667,32.18182641709976L241.07874375,32.18182312298714L241.45045347222222,32.18182114651955L241.51292569444445,32.18181996063902L241.69721875,32.1818192491107L242.01426527777778,32.18181882219372L242.0173888888889,32.18181856604349L242.3469298611111,32.18181841235335L242.5437173611111,32.181818320139314L242.71707777777777,32.181818264810886L242.75299930555553,32.18181823161382L242.9029326388889,32.18181821169557L243.00601180555554,32.18181819974464L243.02943888888888,32.18181819257407L243.2965076388889,32.181818188271734L243.69945347222225,32.181818185690304L243.7041388888889,32.181818184141434L243.91185902777778,32.18181818321213L243.9352861111111,32.18181818265455L244.22890555555554,32.18181818232003L244.3757152777778,32.181818182119315L244.84425694444442,32.181818181998864L245.0347972222222,32.181818181926616L245.7422951388889,32.181818181883244L245.96563333333333,32.18181818185721L246.29985972222224,32.18181818184161L246.30142152777776,32.181818181832256L246.39669166666664,32.18181818182666L246.6871875,32.181818181823274L247.3650111111111,32.18181818182123L247.88977777777777,32.181818181820034L248.37706111111112,32.181818181819324L248.40048819444445,32.18181818181887L248.61601736111112,32.18181818181861L248.91119861111113,32.18181818181847L249.01427777777778,32.18181818181836L249.14703125,32.18181818181827L249.4781340277778,32.181818181818244L249.48438124999998,32.181818181818244L249.49999930555555,32.181818181818244L249.80455138888888,32.181818181818244L250.24341875,32.181818181818244L250.28246388888888,32.181818181818244L250.37304861111113,32.181818181818244L250.59638680555557,32.181818181818244L250.8868826388889,32.181818181818244L251.0899173611111,32.181818181818244L251.21954722222222,32.181818181818244L251.63030208333333,32.181818181818244L251.95984305555555,32.181818181818244L252.3159347222222,32.181818181818244L252.7844763888889,32.181818181818244L253.24989444444444,32.181818181818244L253.57475,32.181818181818244L253.63253680555556,32.181818181818244L253.70594166666666,32.181818181818244L254.21352847222224,32.181818181818244L254.2775625,32.181818181818244L254.73985694444443,32.181818181818244L254.7585986111111,32.181818181818244L254.95070069444444,32.181818181818244L255.12406111111113,32.181818181818244L255.46141111111112,32.181818181818244L255.46765833333333,32.181818181818244L255.6581986111111,32.181818181818244L256.7311590277778,32.181818181818244L256.86859791666666,32.181818181818244L256.8982722222222,32.181818181818244L256.94668819444445,32.181818181818244L257.11536319444446,32.181818181818244L257.20282430555557,32.181818181818244L257.58546666666666,32.181818181818244L257.65418611111113,32.181818181818244L257.6869840277778,32.181818181818244L258.3366951388889,32.181818181818244L258.3976055555555,32.181818181818244L259.8422756944444,32.181818181818244L259.8532083333333,32.181818181818244L260.05468125,32.181818181818244L260.2998847222222,32.181818181818244L260.6872125,32.181818181818244L260.82308958333334,32.181818181818244L260.9995736111111,32.181818181818244L261.92260069444444,32.181818181818244L262.05066875,32.181818181818244L262.91747083333337,32.181818181818244L263.0720895833333,32.181818181818244L263.3094840277778,32.181818181818244L263.36727083333335,32.181818181818244L263.3985069444445,32.181818181818244L264.201275,32.181818181818244L264.22001666666665,32.181818181818244L264.2684326388889,32.181818181818244L264.76196319444443,32.181818181818244L264.85879513888887,32.181818181818244L265.10556041666666,32.181818181818244L265.15553819444443,32.181818181818244L265.8817777777778,32.181818181818244" fill="none"></path></g></g></g></g><g opacity="0.2"><g><g><g><path style="fill: none;" stroke="rgb(255, 112, 67)" stroke-width="2px" d="M35.91528055555556,253.4318181818182L36.07927013888889,152.86363636363637L36.46815972222222,233.3181818181818L36.589980555555556,273.54545454545456L36.67744166666667,172.97727272727275L36.82425138888888,172.97727272727275L37.064769444444444,233.3181818181818L37.327152777777776,213.20454545454547L37.35370347222222,132.75000000000003L37.53643472222222,152.86363636363637L37.62545763888889,152.86363636363637L37.65669375,112.63636363636365L37.87378472222222,152.86363636363637L38.17052777777778,172.97727272727275L38.21425833333333,152.86363636363637L38.46883263888889,213.20454545454547L38.63126041666666,52.295454545454575L39.3575,112.63636363636365L39.41997222222222,193.0909090909091L39.75263680555556,132.75000000000003L39.80105277777778,172.97727272727275L39.84322152777778,172.97727272727275L40.24304375,193.0909090909091L40.269594444444444,132.75000000000003L40.58351736111111,172.97727272727275L41.292577083333335,92.5227272727273L41.41595972222222,172.97727272727275L42.39989722222222,72.40909090909092L42.691954861111114,152.86363636363637L42.77785416666667,152.86363636363637L42.85125902777778,72.40909090909092L43.319800694444446,112.63636363636365L43.82270208333334,132.75000000000003L44.40057013888889,132.75000000000003L44.58798680555555,152.86363636363637L44.759785416666666,112.63636363636365L44.93626944444445,92.5227272727273L46.488704166666665,112.63636363636365L46.57460347222222,152.86363636363637L46.64488472222222,213.20454545454547L46.90414444444444,112.63636363636365L47.04626875,112.63636363636365L47.10717916666667,92.5227272727273L47.27585416666666,92.5227272727273L47.307090277777775,72.40909090909092L47.46327083333333,152.86363636363637L47.46639444444444,72.40909090909092L47.522619444444445,172.97727272727275L47.69910347222222,193.0909090909091L47.74908125,92.5227272727273L47.88495833333334,172.97727272727275L48.29883680555555,92.5227272727273L48.67523194444444,92.5227272727273L48.69709722222222,132.75000000000003L49.421775000000004,112.63636363636365L49.479561805555555,132.75000000000003L49.53110138888889,112.63636363636365L49.72164166666667,152.86363636363637L49.74506875,172.97727272727275L50.09335138888889,112.63636363636365L50.19955416666667,32.181818181818215L50.20111597222222,132.75000000000003L50.23079027777778,52.295454545454575L50.546274999999994,132.75000000000003L50.70870277777778,193.0909090909091L50.95702986111112,112.63636363636365L51.394335416666664,152.86363636363637L51.42088611111111,52.295454545454575L52.16274375,132.75000000000003L52.16430555555556,112.63636363636365L52.79215138888889,72.40909090909092L53.5262,132.75000000000003L53.86042638888889,52.295454545454575L53.880729861111114,112.63636363636365L53.93226944444445,72.40909090909092L54.04003402777778,112.63636363636365L54.088449999999995,112.63636363636365L54.530440972222216,132.75000000000003L54.66787986111111,152.86363636363637L54.688183333333335,92.5227272727273L54.80063333333333,152.86363636363637L55.03178055555555,52.295454545454575L55.14266875,112.63636363636365L55.21607361111111,72.40909090909092L55.22700625,72.40909090909092L55.762705555555556,132.75000000000003L55.790818055555555,72.40909090909092L56.17658402777778,112.63636363636365L56.565473611111116,92.5227272727273L56.73883402777778,112.63636363636365L56.92468888888889,172.97727272727275L56.93093611111111,72.40909090909092L57.034015277777776,112.63636363636365L57.14802708333334,92.5227272727273L57.299522222222215,132.75000000000003L57.3213875,172.97727272727275L57.58220902777778,193.0909090909091L57.59157986111111,32.181818181818215L57.61969236111111,32.181818181818215L57.66186111111111,112.63636363636365L57.69153541666667,193.0909090909091L57.719647916666666,112.63636363636365L57.816479861111105,92.5227272727273L58.07105416666667,172.97727272727275L58.19756041666666,132.75000000000003L58.25534722222222,92.5227272727273L58.94566527777778,92.5227272727273L59.31268958333333,132.75000000000003L59.378285416666664,112.63636363636365L59.84057986111111,92.5227272727273L59.86400694444444,72.40909090909092L60.01394027777778,132.75000000000003L60.28881805555556,132.75000000000003L60.51215625,112.63636363636365L60.72768541666667,132.75000000000003L60.81514652777778,52.295454545454575L61.266508333333334,72.40909090909092L61.47422847222222,92.5227272727273L61.56793680555556,52.295454545454575L61.924028472222226,32.181818181818215L62.241075,112.63636363636365L62.40194097222222,112.63636363636365L62.70493125,72.40909090909092L62.864235416666666,92.5227272727273L63.036034027777774,112.63636363636365L63.09225902777778,72.40909090909092L63.285922916666664,52.295454545454575L63.46553055555555,92.5227272727273L64.14023055555556,92.5227272727273L64.40105208333334,72.40909090909092L65.31470833333333,32.181818181818215L65.37093333333334,92.5227272727273L65.44433819444444,92.5227272727273L65.59114791666667,72.40909090909092L65.65362013888888,112.63636363636365L65.75357569444444,72.40909090909092L65.79262083333333,132.75000000000003L65.83478958333333,92.5227272727273L66.23461180555556,52.295454545454575L66.35018541666668,132.75000000000003L66.66879375,72.40909090909092L66.77343472222222,72.40909090909092L66.89213194444444,172.97727272727275L67.42002222222222,112.63636363636365L67.48093263888889,32.181818181818215L68.17437430555556,52.295454545454575L68.5210951388889,32.181818181818215L68.69757916666667,72.40909090909092L68.86156875,72.40909090909092L69.71431458333333,92.5227272727273L69.775225,92.5227272727273L70.32654236111111,132.75000000000003L70.92159027777778,92.5227272727273L71.04653472222223,72.40909090909092L71.16835555555556,112.63636363636365L71.24019861111111,92.5227272727273L71.686875,52.295454545454575L72.07264097222222,72.40909090909092L72.37719305555555,32.181818181818215L72.55211527777779,92.5227272727273L72.57710416666666,32.181818181818215L72.69736319444445,92.5227272727273L72.70829583333334,152.86363636363637L72.99098263888888,52.295454545454575L73.17683749999999,92.5227272727273L73.29865833333334,92.5227272727273L74.03583055555556,172.97727272727275L74.42003472222223,52.295454545454575L74.61057500000001,92.5227272727273L74.78549722222222,72.40909090909092L75.23061180555555,72.40909090909092L75.37429791666666,72.40909090909092L75.4430173611111,112.63636363636365L75.58201805555557,92.5227272727273L75.60856875,152.86363636363637L75.98652569444445,32.181818181818215L76.12708819444444,92.5227272727273L77.09072222222221,112.63636363636365L77.1125875,112.63636363636365L77.12508194444445,32.181818181818215L77.51709513888888,112.63636363636365L77.55301666666666,72.40909090909092L77.64828680555556,72.40909090909092L77.81071458333334,72.40909090909092L78.23084027777779,72.40909090909092L78.23552569444445,112.63636363636365L78.32298680555556,72.40909090909092L78.4619875,92.5227272727273L79.03204652777777,52.295454545454575L79.08827152777778,112.63636363636365L79.76140972222223,92.5227272727273L80.08001805555554,72.40909090909092L80.83437013888889,92.5227272727273L80.95775277777778,152.86363636363637L81.10924791666666,72.40909090909092L81.62152013888888,72.40909090909092L81.90889236111111,112.63636363636365L82.22437708333332,92.5227272727273L82.46489513888888,152.86363636363637L82.49769305555556,32.181818181818215L83.39104583333334,32.181818181818215L83.5394173611111,132.75000000000003L83.57377708333334,52.295454545454575L83.90175624999999,132.75000000000003L84.55771458333334,112.63636363636365L84.63424305555556,72.40909090909092L84.79979444444444,132.75000000000003L85.25271805555556,112.63636363636365L85.26365069444444,112.63636363636365L85.47449444444445,112.63636363636365L85.68065277777777,152.86363636363637L85.83370972222222,72.40909090909092L86.26164444444444,92.5227272727273L86.35379097222223,52.295454545454575L86.41313958333333,72.40909090909092L86.67864652777777,52.295454545454575L87.01599652777779,92.5227272727273L87.38926805555556,132.75000000000003L87.42831319444446,92.5227272727273L87.44549305555554,92.5227272727273L87.47204375,52.295454545454575L87.49078541666665,92.5227272727273L87.69382013888888,92.5227272727273L87.77503402777778,52.295454545454575L87.77815763888889,52.295454545454575L88.02648472222224,52.295454545454575L88.24982291666667,132.75000000000003L88.38257638888889,72.40909090909092L88.96512986111112,72.40909090909092L89.16972638888889,112.63636363636365L90.1849,52.295454545454575L90.75652083333334,112.63636363636365L90.96267916666666,112.63636363636365L91.07512916666667,112.63636363636365L91.11105069444444,112.63636363636365L91.20319722222223,112.63636363636365L91.29378194444445,132.75000000000003L91.29846736111111,92.5227272727273L91.52180555555555,72.40909090909092L92.06999930555556,72.40909090909092L92.31051736111111,92.5227272727273L92.75250833333334,112.63636363636365L92.80560972222221,152.86363636363637L92.86652013888889,112.63636363636365L92.87745277777778,92.5227272727273L92.90712708333334,52.295454545454575L92.93211597222222,112.63636363636365L93.39441041666666,112.63636363636365L93.73332222222223,92.5227272727273L93.78798541666667,112.63636363636365L93.83796319444444,72.40909090909092L94.01444722222223,52.295454545454575L94.02694166666667,92.5227272727273L94.13939166666665,132.75000000000003L94.15969513888889,72.40909090909092L94.18780763888888,92.5227272727273L94.48767430555556,92.5227272727273L94.50173055555555,52.295454545454575L94.8765638888889,172.97727272727275L95.8464451388889,52.295454545454575L95.87299583333333,152.86363636363637L95.93390624999999,32.181818181818215L96.2603236111111,112.63636363636365L97.15211458333334,172.97727272727275L97.30204791666667,132.75000000000003L97.68312847222222,52.295454545454575L98.01110763888889,112.63636363636365L98.03453472222222,92.5227272727273L98.15010833333334,172.97727272727275L98.40624444444444,132.75000000000003L99.00441597222222,132.75000000000003L99.07001180555557,52.295454545454575L99.18246180555555,92.5227272727273L99.48232847222222,72.40909090909092L99.69629583333334,112.63636363636365L100.0633201388889,52.295454545454575L100.48344583333333,72.40909090909092L100.59277222222222,112.63636363636365L101.0082125,72.40909090909092L101.02070694444446,72.40909090909092L101.49705763888889,132.75000000000003L101.5454736111111,132.75000000000003L101.70321597222222,52.295454545454575L102.53409652777778,132.75000000000003L102.78710902777777,72.40909090909092L102.80428888888889,112.63636363636365L103.17443680555554,112.63636363636365L103.64922569444444,52.295454545454575L103.6960798611111,72.40909090909092L103.960025,52.295454545454575L104.03499166666667,92.5227272727273L104.22865555555556,132.75000000000003L104.56444375,112.63636363636365L105.06109791666665,132.75000000000003L105.25476180555555,92.5227272727273L105.46716736111111,112.63636363636365L105.67332569444444,32.181818181818215L105.71705625,92.5227272727273L105.7982701388889,92.5227272727273L106.43861041666666,52.295454545454575L106.62134166666667,52.295454545454575L106.67288125,92.5227272727273L107.1617263888889,72.40909090909092L107.45066041666666,92.5227272727273L107.60684097222223,52.295454545454575L107.7552125,172.97727272727275L107.93169652777777,72.40909090909092L108.13629305555554,112.63636363636365L108.58921666666666,92.5227272727273L108.94218472222222,72.40909090909092L109.02652222222223,52.295454545454575L109.23736597222222,72.40909090909092L109.78712152777777,72.40909090909092L109.99796527777778,92.5227272727273L110.04325763888889,132.75000000000003L110.10572986111112,72.40909090909092L110.16507847222222,52.295454545454575L110.29158472222223,72.40909090909092L110.369675,112.63636363636365L110.49774305555556,52.295454545454575L110.82884583333333,72.40909090909092L110.8444638888889,112.63636363636365L111.42389374999999,52.295454545454575L111.57695069444445,112.63636363636365L111.60037777777778,52.295454545454575L111.64410833333334,72.40909090909092L111.67065902777779,72.40909090909092L111.67846805555554,132.75000000000003L111.831525,72.40909090909092L112.07360486111112,112.63636363636365L112.40939305555555,132.75000000000003L112.66709097222221,72.40909090909092L112.71238333333332,72.40909090909092L113.15125069444444,112.63636363636365L113.17311597222222,132.75000000000003L113.30430763888889,72.40909090909092L113.5713763888889,92.5227272727273L113.70881527777777,72.40909090909092L113.83688333333333,132.75000000000003L113.84781597222222,112.63636363636365L114.17735694444444,72.40909090909092L114.2210875,52.295454545454575L114.31791944444444,92.5227272727273L114.45535833333334,92.5227272727273L114.53344861111111,132.75000000000003L115.4471048611111,132.75000000000003L116.03278194444445,172.97727272727275L116.54505416666667,72.40909090909092L116.54505416666667,112.63636363636365L116.59034652777777,132.75000000000003L116.99797777777778,132.75000000000003L117.31190069444445,92.5227272727273L117.46339583333334,92.5227272727273L117.5945875,112.63636363636365L117.63675624999999,72.40909090909092L118.0693763888889,152.86363636363637L118.16933194444445,52.295454545454575L118.46295138888888,92.5227272727273L118.63162638888889,72.40909090909092L119.21730347222223,72.40909090909092L119.24697777777777,112.63636363636365L119.40315833333334,72.40909090909092L119.7311375,72.40909090909092L119.93885763888889,112.63636363636365L120.05755486111111,52.295454545454575L120.24497152777778,92.5227272727273L120.48861319444444,72.40909090909092L120.61824305555557,72.40909090909092L121.11645902777776,92.5227272727273L121.43662916666666,72.40909090909092L121.446,72.40909090909092L121.727125,52.295454545454575L121.85206944444445,112.63636363636365L122.34716180555556,72.40909090909092L122.3768361111111,112.63636363636365L122.43306111111112,92.5227272727273L122.63921944444444,52.295454545454575L122.72355694444445,112.63636363636365L123.09839027777777,112.63636363636365L123.24676180555555,72.40909090909092L123.33734652777778,52.295454545454575L123.53257222222221,72.40909090909092L123.89178749999999,72.40909090909092L124.16354166666666,92.5227272727273L124.40093611111112,92.5227272727273L124.9288263888889,92.5227272727273L125.87684236111112,92.5227272727273L125.87684236111112,92.5227272727273L125.98616875,152.86363636363637L126.00959583333334,72.40909090909092L126.04083194444445,112.63636363636365L126.37818194444445,72.40909090909092L126.66711597222222,52.295454545454575L126.99353333333333,72.40909090909092L127.00290416666667,72.40909090909092L127.08411805555555,112.63636363636365L127.34181597222222,112.63636363636365L127.78224513888888,72.40909090909092L127.80879583333333,72.40909090909092L128.22267430555556,132.75000000000003L128.66310347222222,52.295454545454575L128.70839583333333,132.75000000000003L128.88331805555555,72.40909090909092L129.07698194444444,72.40909090909092L130.3607861111111,92.5227272727273L130.835575,92.5227272727273L130.9089798611111,92.5227272727273L131.09795833333334,72.40909090909092L131.28068958333333,72.40909090909092L131.43062291666666,32.181818181818215L131.51183680555556,52.295454545454575L132.08814305555558,112.63636363636365L132.22245833333332,132.75000000000003L132.29117777777776,52.295454545454575L132.36614444444444,132.75000000000003L132.3989423611111,112.63636363636365L132.69568541666666,112.63636363636365L132.80969722222224,112.63636363636365L133.47815,72.40909090909092L134.06695069444444,52.295454545454575L134.10911944444445,52.295454545454575L134.2200076388889,92.5227272727273L134.84472986111112,72.40909090909092L135.0321465277778,92.5227272727273L135.34606944444445,32.181818181818215L135.76931875,112.63636363636365L135.88333055555555,72.40909090909092L136.17226458333334,72.40909090909092L136.18163541666667,132.75000000000003L136.24879305555555,92.5227272727273L136.5627159722222,132.75000000000003L136.64549166666666,32.181818181818215L137.13902222222222,52.295454545454575L137.34049513888888,132.75000000000003L137.60287847222222,132.75000000000003L137.72001388888887,52.295454545454575L137.96521736111112,52.295454545454575L137.96990277777778,92.5227272727273L138.23853333333335,72.40909090909092L138.2635222222222,72.40909090909092L138.6617826388889,52.295454545454575L138.75705277777777,92.5227272727273L138.97570555555555,72.40909090909092L139.73474305555555,52.295454545454575L139.98463194444446,92.5227272727273L140.09708194444443,52.295454545454575L140.1330034722222,92.5227272727273L140.54375833333333,52.295454545454575L140.57499444444443,52.295454545454575L140.59842152777776,72.40909090909092L140.60623055555556,92.5227272727273L140.66557916666665,92.5227272727273L140.6921298611111,72.40909090909092L141.1497388888889,92.5227272727273L141.33559375000002,152.86363636363637L141.51832499999998,72.40909090909092L142.01029375,92.5227272727273L142.03840624999998,72.40909090909092L142.27892430555556,72.40909090909092L142.27892430555556,32.181818181818215L142.71154444444446,92.5227272727273L142.8224326388889,32.181818181818215L143.05201805555555,72.40909090909092L143.1738388888889,132.75000000000003L143.5252451388889,112.63636363636365L143.62363888888888,112.63636363636365L143.86415694444443,92.5227272727273L143.90944930555554,92.5227272727273L144.0031576388889,72.40909090909092L145.02301666666668,112.63636363636365L145.0854888888889,92.5227272727273L145.49312013888888,112.63636363636365L145.79298680555556,92.5227272727273L146.4130236111111,92.5227272727273L146.95809375000002,32.181818181818215L147.03618402777778,172.97727272727275L147.14238680555556,112.63636363636365L147.23765694444444,92.5227272727273L147.28294930555555,132.75000000000003L147.33605069444442,52.295454545454575L147.33917430555556,32.181818181818215L147.93734583333332,72.40909090909092L148.1247625,52.295454545454575L148.28406666666666,52.295454545454575L148.377775,92.5227272727273L148.96501388888888,92.5227272727273L149.04622777777777,92.5227272727273L149.1867902777778,52.295454545454575L149.19772291666666,92.5227272727273L149.22583541666668,52.295454545454575L149.25707152777778,72.40909090909092L149.3304763888889,112.63636363636365L149.36952152777778,32.181818181818215L149.5100840277778,52.295454545454575L149.57724166666668,32.181818181818215L149.69750069444447,92.5227272727273L150.34252638888887,132.75000000000003L150.53306666666666,112.63636363636365L151.14997986111112,52.295454545454575L151.20151944444444,112.63636363636365L151.2499354166667,72.40909090909092L152.01522013888888,32.181818181818215L152.42441319444444,32.181818181818215L152.73365069444444,52.295454545454575L152.83985347222222,52.295454545454575L152.85078611111112,52.295454545454575L153.36462013888888,52.295454545454575L153.5676548611111,72.40909090909092L153.75975694444446,72.40909090909092L153.87376875,92.5227272727273L153.88938680555557,112.63636363636365L153.9409263888889,52.295454545454575L154.06587083333335,72.40909090909092L154.1377138888889,32.181818181818215L154.17519722222224,32.181818181818215L154.32513055555555,32.181818181818215L154.562525,32.181818181818215L155.38872013888889,52.295454545454575L155.51210277777778,72.40909090909092L155.71982291666666,32.181818181818215L155.80884583333335,32.181818181818215L156.00875694444446,32.181818181818215L156.3398597222222,32.181818181818215L156.3789048611111,72.40909090909092L156.5132201388889,32.181818181818215L156.5413326388889,52.295454545454575L156.73499652777775,52.295454545454575L157.08640277777778,32.181818181818215L157.10826805555556,32.181818181818215L157.24726875000002,32.181818181818215L157.7048777777778,32.181818181818215L157.72205763888888,32.181818181818215L157.8548111111111,52.295454545454575L157.8548111111111,32.181818181818215L157.9047888888889,32.181818181818215L158.19840833333333,72.40909090909092L158.35927430555554,32.181818181818215L158.75597291666665,32.181818181818215L159.27136875,32.181818181818215L159.79145,52.295454545454575L159.97574305555554,52.295454545454575L160.44740833333333,32.181818181818215L160.55204930555556,32.181818181818215L160.71135347222224,32.181818181818215L160.8644104166667,32.181818181818215L161.10024305555555,32.181818181818215L161.11742291666667,32.181818181818215L161.26735625,52.295454545454575L161.54691944444443,52.295454545454575L161.60626805555555,72.40909090909092L161.76401041666668,52.295454545454575L161.83116805555557,32.181818181818215L161.95767430555554,32.181818181818215L162.15133819444446,32.181818181818215L162.45745208333332,32.181818181818215L162.56990208333335,32.181818181818215L162.7323298611111,32.181818181818215L162.85727430555553,32.181818181818215L162.99158958333334,32.181818181818215L163.11341041666668,32.181818181818215L163.46169305555554,52.295454545454575L163.64286249999998,52.295454545454575L163.89118958333333,52.295454545454575L163.96147083333335,32.181818181818215L164.13795486111113,32.181818181818215L164.3769111111111,52.295454545454575L164.93759930555558,32.181818181818215L165.2562076388889,32.181818181818215L165.28588194444447,32.181818181818215L165.29369097222224,32.181818181818215L165.73255833333334,32.181818181818215L165.87780625,52.295454545454575L166.31198819444444,32.181818181818215L166.4056965277778,32.181818181818215L166.46973055555554,32.181818181818215L166.56343888888887,32.181818181818215L166.76803541666666,72.40909090909092L166.9148451388889,52.295454545454575L167.43805,72.40909090909092L167.61921944444444,32.181818181818215L168.0284125,32.181818181818215L168.10806458333332,32.181818181818215L168.7390340277778,32.181818181818215L168.8967763888889,32.181818181818215L169.1310472222222,32.181818181818215L169.52306041666665,32.181818181818215L169.99160208333333,52.295454545454575L170.0634451388889,32.181818181818215L170.1618388888889,32.181818181818215L170.38830069444447,32.181818181818215L170.75376319444445,32.181818181818215L170.78499930555554,32.181818181818215L171.17232708333333,32.181818181818215L171.77362222222223,32.181818181818215L172.04537638888888,32.181818181818215L172.27183819444443,32.181818181818215L172.61855902777776,32.181818181818215L172.6216826388889,52.295454545454575L172.66541319444445,32.181818181818215L172.9418527777778,32.181818181818215L173.0777298611111,32.181818181818215L173.4291361111111,52.295454545454575L173.75399166666665,52.295454545454575L174.0132513888889,32.181818181818215L174.0554201388889,32.181818181818215L174.09915069444446,32.181818181818215L174.10227430555557,32.181818181818215L174.31780347222224,32.181818181818215L174.353725,32.181818181818215L174.35528680555555,32.181818181818215L174.5224,32.181818181818215L174.6098611111111,32.181818181818215L175.03935763888887,32.181818181818215L175.50477569444445,32.181818181818215L175.74997916666666,32.181818181818215L176.1841611111111,32.181818181818215L176.48871319444444,52.295454545454575L176.66675902777777,52.295454545454575L176.67612986111112,32.181818181818215L176.90415347222222,52.295454545454575L177.02285069444446,32.181818181818215L177.0447159722222,32.181818181818215L177.20714375,52.295454545454575L177.29304305555556,32.181818181818215L177.3367736111111,32.181818181818215L177.37581875,52.295454545454575L177.7350340277778,32.181818181818215L177.7928208333333,32.181818181818215L178.00210277777776,32.181818181818215L178.03802430555555,32.181818181818215L179.00790555555554,52.295454545454575L179.02508541666668,52.295454545454575L179.02977083333334,32.181818181818215L179.0797486111111,32.181818181818215L179.39367152777777,52.295454545454575L179.55609930555553,52.295454545454575L179.87314583333335,32.181818181818215L179.95435972222222,32.181818181818215L181.33811944444443,52.295454545454575L182.21116875,32.181818181818215L182.5235298611111,32.181818181818215L183.2169715277778,32.181818181818215L183.74486180555556,32.181818181818215L183.82607569444446,32.181818181818215L183.9963125,32.181818181818215L184.68194513888886,32.181818181818215L184.8615527777778,52.295454545454575L184.90059791666664,32.181818181818215L185.07864375,52.295454545454575L185.17547569444446,52.295454545454575L186.01260347222222,32.181818181818215L186.17659305555557,32.181818181818215L186.5201902777778,32.181818181818215L186.5233138888889,32.181818181818215L186.83879861111112,52.295454545454575L186.8606638888889,52.295454545454575L187.15428333333332,52.295454545454575L187.15584513888888,52.295454545454575L187.58221805555556,72.40909090909092L187.62594861111108,32.181818181818215L188.51149236111112,32.181818181818215L188.8113590277778,32.181818181818215L188.91756180555555,32.181818181818215L189.24710277777777,32.181818181818215L189.3408111111111,32.181818181818215L189.53603680555554,52.295454545454575L189.73594791666667,32.181818181818215L189.94054444444447,32.181818181818215L190.64335694444443,52.295454545454575L191.12907847222223,32.181818181818215L191.25402291666668,32.181818181818215L191.55076597222222,32.181818181818215L191.6600923611111,32.181818181818215L192.18954444444446,32.181818181818215L192.92359305555553,32.181818181818215L193.35933680555556,32.181818181818215L193.51707916666666,32.181818181818215L193.92627222222222,32.181818181818215L193.9949916666667,32.181818181818215L194.00592430555554,32.181818181818215L194.24956597222223,52.295454545454575L194.3948138888889,32.181818181818215L194.42136458333334,32.181818181818215L194.76808541666665,32.181818181818215L195.20851458333334,32.181818181818215L195.21788541666666,32.181818181818215L195.3756277777778,52.295454545454575L195.4662125,32.181818181818215L195.94724861111112,32.181818181818215L196.19557569444444,32.181818181818215L196.5516673611111,32.181818181818215L197.64649305555554,32.181818181818215L197.7074034722222,32.181818181818215L198.24622638888889,52.295454545454575L198.41646319444442,32.181818181818215L198.44457569444447,32.181818181818215L198.82721805555553,32.181818181818215L198.87563402777778,32.181818181818215L198.91780277777778,32.181818181818215L199.38946805555554,52.295454545454575L199.87518958333334,32.181818181818215L199.9298527777778,32.181818181818215L199.95327986111113,52.295454545454575L201.04654374999998,72.40909090909092L201.12775763888888,32.181818181818215L201.2402076388889,32.181818181818215L201.36983750000002,32.181818181818215L201.64627708333336,32.181818181818215L201.66345694444445,32.181818181818215L201.7805923611111,32.181818181818215L202.46778680555556,52.295454545454575L202.65676527777777,32.181818181818215L202.73797916666666,32.181818181818215L202.87229444444444,32.181818181818215L202.9269576388889,32.181818181818215L203.1581048611111,32.181818181818215L203.24244236111113,32.181818181818215L203.5985340277778,52.295454545454575L203.68911875,52.295454545454575L204.02803055555557,32.181818181818215L204.55748263888887,52.295454545454575L204.63244930555555,52.295454545454575L205.79755624999999,32.181818181818215L206.81897708333335,32.181818181818215L207.10010208333333,52.295454545454575L207.9138027777778,32.181818181818215L207.99033125,32.181818181818215L207.99970208333335,32.181818181818215L208.18555694444444,52.295454545454575L208.8227736111111,52.295454545454575L208.8930548611111,32.181818181818215L209.12420208333333,52.295454545454575L209.25539375,52.295454545454575L209.25695555555555,52.295454545454575L209.41625972222224,52.295454545454575L209.73799166666666,32.181818181818215L209.74111527777777,32.181818181818215L210.02380208333332,32.181818181818215L210.06284722222222,32.181818181818215L210.29087083333334,32.181818181818215L210.4111298611111,32.181818181818215L210.51108541666667,32.181818181818215L210.67351319444444,32.181818181818215L210.79533402777778,32.181818181818215L211.03429027777779,32.181818181818215L211.13424583333332,32.181818181818215L211.64339444444445,32.181818181818215L212.45397152777778,32.181818181818215L212.54299444444445,32.181818181818215L212.55705069444443,32.181818181818215L212.7460291666667,32.181818181818215L213.55504444444443,32.181818181818215L213.55660625000002,32.181818181818215L213.56597708333334,32.181818181818215L213.68155069444444,32.181818181818215L213.81898958333332,32.181818181818215L213.91894513888892,32.181818181818215L213.96267569444444,32.181818181818215L214.08918194444445,32.181818181818215L214.1375979166667,32.181818181818215L214.3265763888889,32.181818181818215L214.46713888888888,32.181818181818215L214.6842298611111,32.181818181818215L214.79511805555558,32.181818181818215L214.9169388888889,32.181818181818215L214.99034375000002,32.181818181818215L215.6759763888889,32.181818181818215L215.98677569444442,32.181818181818215L216.1070347222222,32.181818181818215L216.2382263888889,32.181818181818215L216.6286777777778,32.181818181818215L216.66147569444445,32.181818181818215L217.12845555555555,32.181818181818215L217.32992847222224,32.181818181818215L217.57200833333334,32.181818181818215L217.7281888888889,32.181818181818215L218.13738194444446,32.181818181818215L218.23265208333333,32.181818181818215L218.72774444444443,32.181818181818215L219.37589375,32.181818181818215L219.54456875,32.181818181818215L219.84912083333333,32.181818181818215L219.92564930555557,32.181818181818215L220.26612291666666,32.181818181818215L220.47071944444443,32.181818181818215L220.48165208333333,32.181818181818215L221.4421625,32.181818181818215L221.52181458333334,32.181818181818215L222.31208819444444,32.181818181818215L222.48076319444442,32.181818181818215L223.11641805555556,32.181818181818215L223.3788013888889,32.181818181818215L223.39129583333332,32.181818181818215L223.95823124999998,32.181818181818215L224.07224305555553,32.181818181818215L224.51579583333333,32.181818181818215L224.61575138888887,32.181818181818215L224.63761666666667,52.295454545454575L224.66260555555553,32.181818181818215L225.12958541666666,32.181818181818215L225.2404736111111,32.181818181818215L225.3107548611111,32.181818181818215L225.65122847222221,32.181818181818215L225.7121388888889,32.181818181818215L226.2103548611111,32.181818181818215L226.4821090277778,32.181818181818215L226.49772708333333,32.181818181818215L226.65234583333333,32.181818181818215L227.1411909722222,32.181818181818215L227.30830416666666,32.181818181818215L227.3957652777778,32.181818181818215L227.4925972222222,32.181818181818215L227.78621666666666,32.181818181818215L227.86586875,32.181818181818215L227.87523958333333,32.181818181818215L228.0767125,32.181818181818215L228.28911805555555,32.181818181818215L228.4812201388889,32.181818181818215L228.7764013888889,32.181818181818215L228.83887361111113,32.181818181818215L228.96225625,32.181818181818215L229.14811111111112,32.181818181818215L229.8165638888889,32.181818181818215L229.91651944444445,32.181818181818215L230.05552013888888,32.181818181818215L230.1258013888889,32.181818181818215L230.45690416666665,32.181818181818215L230.68336597222222,32.181818181818215L230.72865833333333,32.181818181818215L231.1440986111111,32.181818181818215L231.51112291666666,32.181818181818215L231.71884305555554,32.181818181818215L231.88595625,32.181818181818215L232.75900555555555,52.295454545454575L232.87145555555554,32.181818181818215L232.98390555555557,32.181818181818215L233.02763611111112,32.181818181818215L233.1541423611111,32.181818181818215L233.45869444444443,32.181818181818215L233.57739166666667,32.181818181818215L233.5867625,32.181818181818215L234.06623680555558,32.181818181818215L234.28176597222222,32.181818181818215L234.29894583333333,32.181818181818215L234.39421597222224,32.181818181818215L234.43638472222221,32.181818181818215L234.6862736111111,32.181818181818215L235.01581458333334,32.181818181818215L236.08721319444444,32.181818181818215L236.23402291666667,32.181818181818215L236.24495555555555,32.181818181818215L236.30118055555553,52.295454545454575L236.4995298611111,32.181818181818215L236.50733888888888,32.181818181818215L236.84937430555553,32.181818181818215L237.35383750000003,32.181818181818215L237.5615576388889,32.181818181818215L238.09100972222222,32.181818181818215L238.14567291666665,32.181818181818215L238.38931458333332,32.181818181818215L238.44397777777777,32.181818181818215L238.64545069444443,32.181818181818215L238.71885555555556,32.181818181818215L239.05464375000003,32.181818181818215L239.1983298611111,32.181818181818215L239.2092625,32.181818181818215L239.35763402777778,32.181818181818215L239.47164583333333,32.181818181818215L239.6902986111111,32.181818181818215L239.80118680555557,32.181818181818215L239.8386701388889,32.181818181818215L239.8636590277778,32.181818181818215L240.24005416666668,32.181818181818215L240.24473958333334,32.181818181818215L240.36812222222224,32.181818181818215L240.3696840277778,32.181818181818215L240.4384034722222,32.181818181818215L240.74451736111112,32.181818181818215L241.05531666666667,32.181818181818215L241.07874375,32.181818181818215L241.45045347222222,32.181818181818215L241.51292569444445,32.181818181818215L241.69721875,32.181818181818215L242.01426527777778,32.181818181818215L242.0173888888889,32.181818181818215L242.3469298611111,32.181818181818215L242.5437173611111,32.181818181818215L242.71707777777777,32.181818181818215L242.75299930555553,32.181818181818215L242.9029326388889,32.181818181818215L243.00601180555554,32.181818181818215L243.02943888888888,32.181818181818215L243.2965076388889,32.181818181818215L243.69945347222225,32.181818181818215L243.7041388888889,32.181818181818215L243.91185902777778,32.181818181818215L243.9352861111111,32.181818181818215L244.22890555555554,32.181818181818215L244.3757152777778,32.181818181818215L244.84425694444442,32.181818181818215L245.0347972222222,32.181818181818215L245.7422951388889,32.181818181818215L245.96563333333333,32.181818181818215L246.29985972222224,32.181818181818215L246.30142152777776,32.181818181818215L246.39669166666664,32.181818181818215L246.6871875,32.181818181818215L247.3650111111111,32.181818181818215L247.88977777777777,32.181818181818215L248.37706111111112,32.181818181818215L248.40048819444445,32.181818181818215L248.61601736111112,32.181818181818215L248.91119861111113,32.181818181818215L249.01427777777778,32.181818181818215L249.14703125,32.181818181818215L249.4781340277778,32.181818181818215L249.48438124999998,32.181818181818215L249.49999930555555,32.181818181818215L249.80455138888888,32.181818181818215L250.24341875,32.181818181818215L250.28246388888888,32.181818181818215L250.37304861111113,32.181818181818215L250.59638680555557,32.181818181818215L250.8868826388889,32.181818181818215L251.0899173611111,32.181818181818215L251.21954722222222,32.181818181818215L251.63030208333333,32.181818181818215L251.95984305555555,32.181818181818215L252.3159347222222,32.181818181818215L252.7844763888889,32.181818181818215L253.24989444444444,32.181818181818215L253.57475,32.181818181818215L253.63253680555556,32.181818181818215L253.70594166666666,32.181818181818215L254.21352847222224,32.181818181818215L254.2775625,32.181818181818215L254.73985694444443,32.181818181818215L254.7585986111111,32.181818181818215L254.95070069444444,32.181818181818215L255.12406111111113,32.181818181818215L255.46141111111112,32.181818181818215L255.46765833333333,32.181818181818215L255.6581986111111,32.181818181818215L256.7311590277778,32.181818181818215L256.86859791666666,32.181818181818215L256.8982722222222,32.181818181818215L256.94668819444445,32.181818181818215L257.11536319444446,32.181818181818215L257.20282430555557,32.181818181818215L257.58546666666666,32.181818181818215L257.65418611111113,32.181818181818215L257.6869840277778,32.181818181818215L258.3366951388889,32.181818181818215L258.3976055555555,32.181818181818215L259.8422756944444,32.181818181818215L259.8532083333333,32.181818181818215L260.05468125,32.181818181818215L260.2998847222222,32.181818181818215L260.6872125,32.181818181818215L260.82308958333334,32.181818181818215L260.9995736111111,32.181818181818215L261.92260069444444,32.181818181818215L262.05066875,32.181818181818215L262.91747083333337,32.181818181818215L263.0720895833333,32.181818181818215L263.3094840277778,32.181818181818215L263.36727083333335,32.181818181818215L263.3985069444445,32.181818181818215L264.201275,32.181818181818215L264.22001666666665,32.181818181818215L264.2684326388889,32.181818181818215L264.76196319444443,32.181818181818215L264.85879513888887,32.181818181818215L265.10556041666666,32.181818181818215L265.15553819444443,32.181818181818215L265.8817777777778,32.181818181818215" fill="none"></path></g></g></g></g></g></g><g transform="translate(48, 177)" clip-path="url(#clip_1)"><clipPath id="clip_1"><rect width="281" height="23"></rect></clipPath><g><g><line x1="0" y1="0" x2="0" y2="5" style="visibility: inherit;" fill="rgb(0, 0, 0)" stroke="rgb(204, 204, 204)" stroke-width="1px"></line><line x1="31.23611111111111" y1="0" x2="31.23611111111111" y2="5" style="visibility: inherit;" fill="rgb(0, 0, 0)" stroke="rgb(204, 204, 204)" stroke-width="1px"></line><line x1="62.47222222222222" y1="0" x2="62.47222222222222" y2="5" style="visibility: inherit;" fill="rgb(0, 0, 0)" stroke="rgb(204, 204, 204)" stroke-width="1px"></line><line x1="93.70833333333333" y1="0" x2="93.70833333333333" y2="5" style="visibility: inherit;" fill="rgb(0, 0, 0)" stroke="rgb(204, 204, 204)" stroke-width="1px"></line><line x1="124.94444444444444" y1="0" x2="124.94444444444444" y2="5" style="visibility: inherit;" fill="rgb(0, 0, 0)" stroke="rgb(204, 204, 204)" stroke-width="1px"></line><line x1="156.18055555555557" y1="0" x2="156.18055555555557" y2="5" style="visibility: inherit;" fill="rgb(0, 0, 0)" stroke="rgb(204, 204, 204)" stroke-width="1px"></line><line x1="187.41666666666666" y1="0" x2="187.41666666666666" y2="5" style="visibility: inherit;" fill="rgb(0, 0, 0)" stroke="rgb(204, 204, 204)" stroke-width="1px"></line><line x1="218.65277777777777" y1="0" x2="218.65277777777777" y2="5" style="visibility: inherit;" fill="rgb(0, 0, 0)" stroke="rgb(204, 204, 204)" stroke-width="1px"></line><line x1="249.88888888888889" y1="0" x2="249.88888888888889" y2="5" style="visibility: inherit;" fill="rgb(0, 0, 0)" stroke="rgb(204, 204, 204)" stroke-width="1px"></line><line x1="281.125" y1="0" x2="281.125" y2="5" style="visibility: inherit;" fill="rgb(0, 0, 0)" stroke="rgb(204, 204, 204)" stroke-width="1px"></line></g><g transform="translate(0, 8)"><text x="0" y="0" dx="0em" dy="0.95em" style="text-anchor: middle; visibility: hidden; font-family: &quot;Helvetica Neue&quot;, sans-serif; font-size: 12px; font-weight: 200;" fill="rgb(50, 49, 63)" stroke="none" stroke-width="1px">-20k</text><text x="31.23611111111111" y="0" dx="0em" dy="0.95em" style="text-anchor: middle; visibility: inherit; font-family: &quot;Helvetica Neue&quot;, sans-serif; font-size: 12px; font-weight: 200;" fill="rgb(50, 49, 63)" stroke="none" stroke-width="1px">0</text><text x="62.47222222222222" y="0" dx="0em" dy="0.95em" style="text-anchor: middle; visibility: inherit; font-family: &quot;Helvetica Neue&quot;, sans-serif; font-size: 12px; font-weight: 200;" fill="rgb(50, 49, 63)" stroke="none" stroke-width="1px">20k</text><text x="93.70833333333333" y="0" dx="0em" dy="0.95em" style="text-anchor: middle; visibility: inherit; font-family: &quot;Helvetica Neue&quot;, sans-serif; font-size: 12px; font-weight: 200;" fill="rgb(50, 49, 63)" stroke="none" stroke-width="1px">40k</text><text x="124.94444444444444" y="0" dx="0em" dy="0.95em" style="text-anchor: middle; visibility: inherit; font-family: &quot;Helvetica Neue&quot;, sans-serif; font-size: 12px; font-weight: 200;" fill="rgb(50, 49, 63)" stroke="none" stroke-width="1px">60k</text><text x="156.18055555555557" y="0" dx="0em" dy="0.95em" style="text-anchor: middle; visibility: inherit; font-family: &quot;Helvetica Neue&quot;, sans-serif; font-size: 12px; font-weight: 200;" fill="rgb(50, 49, 63)" stroke="none" stroke-width="1px">80k</text><text x="187.41666666666666" y="0" dx="0em" dy="0.95em" style="text-anchor: middle; visibility: inherit; font-family: &quot;Helvetica Neue&quot;, sans-serif; font-size: 12px; font-weight: 200;" fill="rgb(50, 49, 63)" stroke="none" stroke-width="1px">100k</text><text x="218.65277777777777" y="0" dx="0em" dy="0.95em" style="text-anchor: middle; visibility: inherit; font-family: &quot;Helvetica Neue&quot;, sans-serif; font-size: 12px; font-weight: 200;" fill="rgb(50, 49, 63)" stroke="none" stroke-width="1px">120k</text><text x="249.88888888888889" y="0" dx="0em" dy="0.95em" style="text-anchor: middle; visibility: inherit; font-family: &quot;Helvetica Neue&quot;, sans-serif; font-size: 12px; font-weight: 200;" fill="rgb(50, 49, 63)" stroke="none" stroke-width="1px">140k</text><text x="281.125" y="0" dx="0em" dy="0.95em" style="text-anchor: middle; visibility: hidden; font-family: &quot;Helvetica Neue&quot;, sans-serif; font-size: 12px; font-weight: 200;" fill="rgb(50, 49, 63)" stroke="none" stroke-width="1px">160k</text></g><line x1="0" y1="0" x2="281.125" y2="0" fill="rgb(0, 0, 0)" stroke="rgb(204, 204, 204)" stroke-width="1px"></line></g></g></g></g></svg>