<svg viewBox="0 0 330 200" xmlns="http://www.w3.org/2000/svg"><g><g><g><g><g><line x1="48.875" y1="177" x2="43.875" y2="177" style="visibility: inherit;" fill="rgb(0, 0, 0)" stroke="rgb(204, 204, 204)" stroke-width="1px"></line><line x1="48.875" y1="154.875" x2="43.875" y2="154.875" style="visibility: inherit;" fill="rgb(0, 0, 0)" stroke="rgb(204, 204, 204)" stroke-width="1px"></line><line x1="48.875" y1="132.75" x2="43.875" y2="132.75" style="visibility: inherit;" fill="rgb(0, 0, 0)" stroke="rgb(204, 204, 204)" stroke-width="1px"></line><line x1="48.875" y1="110.62499999999999" x2="43.875" y2="110.62499999999999" style="visibility: inherit;" fill="rgb(0, 0, 0)" stroke="rgb(204, 204, 204)" stroke-width="1px"></line><line x1="48.875" y1="88.49999999999999" x2="43.875" y2="88.49999999999999" style="visibility: inherit;" fill="rgb(0, 0, 0)" stroke="rgb(204, 204, 204)" stroke-width="1px"></line><line x1="48.875" y1="66.375" x2="43.875" y2="66.375" style="visibility: inherit;" fill="rgb(0, 0, 0)" stroke="rgb(204, 204, 204)" stroke-width="1px"></line><line x1="48.875" y1="44.25" x2="43.875" y2="44.25" style="visibility: inherit;" fill="rgb(0, 0, 0)" stroke="rgb(204, 204, 204)" stroke-width="1px"></line><line x1="48.875" y1="22.125" x2="43.875" y2="22.125" style="visibility: inherit;" fill="rgb(0, 0, 0)" stroke="rgb(204, 204, 204)" stroke-width="1px"></line><line x1="48.875" y1="0" x2="43.875" y2="0" style="visibility: inherit;" fill="rgb(0, 0, 0)" stroke="rgb(204, 204, 204)" stroke-width="1px"></line></g><g transform="translate(38.875, 0)"><text x="0" y="177" dx="0em" dy="0.3em" style="text-anchor: end; visibility: hidden; font-family: &quot;Helvetica Neue&quot;, sans-serif; font-size: 12px; font-weight: 200;" fill="rgb(50, 49, 63)" stroke="none" stroke-width="1px">-0.1</text><text x="0" y="154.875" dx="0em" dy="0.3em" style="text-anchor: end; visibility: inherit; font-family: &quot;Helvetica Neue&quot;, sans-serif; font-size: 12px; font-weight: 200;" fill="rgb(50, 49, 63)" stroke="none" stroke-width="1px">0</text><text x="0" y="132.75" dx="0em" dy="0.3em" style="text-anchor: end; visibility: hidden; font-family: &quot;Helvetica Neue&quot;, sans-serif; font-size: 12px; font-weight: 200;" fill="rgb(50, 49, 63)" stroke="none" stroke-width="1px">0.1</text><text x="0" y="110.62499999999999" dx="0em" dy="0.3em" style="text-anchor: end; visibility: inherit; font-family: &quot;Helvetica Neue&quot;, sans-serif; font-size: 12px; font-weight: 200;" fill="rgb(50, 49, 63)" stroke="none" stroke-width="1px">0.2</text><text x="0" y="88.49999999999999" dx="0em" dy="0.3em" style="text-anchor: end; visibility: hidden; font-family: &quot;Helvetica Neue&quot;, sans-serif; font-size: 12px; font-weight: 200;" fill="rgb(50, 49, 63)" stroke="none" stroke-width="1px">0.3</text><text x="0" y="66.375" dx="0em" dy="0.3em" style="text-anchor: end; visibility: inherit; font-family: &quot;Helvetica Neue&quot;, sans-serif; font-size: 12px; font-weight: 200;" fill="rgb(50, 49, 63)" stroke="none" stroke-width="1px">0.4</text><text x="0" y="44.25" dx="0em" dy="0.3em" style="text-anchor: end; visibility: hidden; font-family: &quot;Helvetica Neue&quot;, sans-serif; font-size: 12px; font-weight: 200;" fill="rgb(50, 49, 63)" stroke="none" stroke-width="1px">0.5</text><text x="0" y="22.125" dx="0em" dy="0.3em" style="text-anchor: end; visibility: inherit; font-family: &quot;Helvetica Neue&quot;, sans-serif; font-size: 12px; font-weight: 200;" fill="rgb(50, 49, 63)" stroke="none" stroke-width="1px">0.6</text><text x="0" y="0" dx="0em" dy="0.3em" style="text-anchor: end; visibility: hidden; font-family: &quot;Helvetica Neue&quot;, sans-serif; font-size: 12px; font-weight: 200;" fill="rgb(50, 49, 63)" stroke="none" stroke-width="1px">0.7</text></g><line x1="48.875" y1="0" x2="48.875" y2="177" fill="rgb(0, 0, 0)" stroke="rgb(204, 204, 204)" stroke-width="1px"></line></g></g><g transform="translate(48, 0)" clip-path="url(#clip_0)"><clipPath id="clip_0"><rect width="281" height="177"></rect></clipPath><g><g><g><line x1="0" y1="0" x2="0" y2="177" fill="rgb(0, 0, 0)" stroke="rgb(60, 60, 60)" stroke-width="1px" opacity="0.25"></line><line x1="31.23611111111111" y1="0" x2="31.23611111111111" y2="177" fill="rgb(0, 0, 0)" stroke="rgb(60, 60, 60)" stroke-width="1px" opacity="0.25"></line><line x1="62.47222222222222" y1="0" x2="62.47222222222222" y2="177" fill="rgb(0, 0, 0)" stroke="rgb(60, 60, 60)" stroke-width="1px" opacity="0.25"></line><line x1="93.70833333333333" y1="0" x2="93.70833333333333" y2="177" fill="rgb(0, 0, 0)" stroke="rgb(60, 60, 60)" stroke-width="1px" opacity="0.25"></line><line x1="124.94444444444444" y1="0" x2="124.94444444444444" y2="177" fill="rgb(0, 0, 0)" stroke="rgb(60, 60, 60)" stroke-width="1px" opacity="0.25"></line><line x1="156.18055555555557" y1="0" x2="156.18055555555557" y2="177" fill="rgb(0, 0, 0)" stroke="rgb(60, 60, 60)" stroke-width="1px" opacity="0.25"></line><line x1="187.41666666666666" y1="0" x2="187.41666666666666" y2="177" fill="rgb(0, 0, 0)" stroke="rgb(60, 60, 60)" stroke-width="1px" opacity="0.25"></line><line x1="218.65277777777777" y1="0" x2="218.65277777777777" y2="177" fill="rgb(0, 0, 0)" stroke="rgb(60, 60, 60)" stroke-width="1px" opacity="0.25"></line><line x1="249.88888888888889" y1="0" x2="249.88888888888889" y2="177" fill="rgb(0, 0, 0)" stroke="rgb(60, 60, 60)" stroke-width="1px" opacity="0.25"></line><line x1="281.125" y1="0" x2="281.125" y2="177" fill="rgb(0, 0, 0)" stroke="rgb(60, 60, 60)" stroke-width="1px" opacity="0.25"></line></g><g><line x1="0" y1="177" x2="281.125" y2="177" fill="rgb(0, 0, 0)" stroke="rgb(60, 60, 60)" stroke-width="1px" opacity="0.25"></line><line x1="0" y1="154.875" x2="281.125" y2="154.875" fill="rgb(0, 0, 0)" stroke="rgb(60, 60, 60)" stroke-width="1px" opacity="0.25"></line><line x1="0" y1="132.75" x2="281.125" y2="132.75" fill="rgb(0, 0, 0)" stroke="rgb(60, 60, 60)" stroke-width="1px" opacity="0.25"></line><line x1="0" y1="110.62499999999999" x2="281.125" y2="110.62499999999999" fill="rgb(0, 0, 0)" stroke="rgb(60, 60, 60)" stroke-width="1px" opacity="0.25"></line><line x1="0" y1="88.49999999999999" x2="281.125" y2="88.49999999999999" fill="rgb(0, 0, 0)" stroke="rgb(60, 60, 60)" stroke-width="1px" opacity="0.25"></line><line x1="0" y1="66.375" x2="281.125" y2="66.375" fill="rgb(0, 0, 0)" stroke="rgb(60, 60, 60)" stroke-width="1px" opacity="0.25"></line><line x1="0" y1="44.25" x2="281.125" y2="44.25" fill="rgb(0, 0, 0)" stroke="rgb(60, 60, 60)" stroke-width="1px" opacity="0.25"></line><line x1="0" y1="22.125" x2="281.125" y2="22.125" fill="rgb(0, 0, 0)" stroke="rgb(60, 60, 60)" stroke-width="1px" opacity="0.25"></line><line x1="0" y1="0" x2="281.125" y2="0" fill="rgb(0, 0, 0)" stroke="rgb(60, 60, 60)" stroke-width="1px" opacity="0.25"></line></g></g></g><g><g><line x1="0" y1="154.875" x2="281.125" y2="154.875" fill="rgb(0, 0, 0)" stroke="rgb(153, 153, 153)" stroke-width="1.5px"></line></g></g><g><g><line x1="31.23611111111111" y1="0" x2="31.23611111111111" y2="177" fill="rgb(0, 0, 0)" stroke="rgb(153, 153, 153)" stroke-width="1.5px"></line></g></g><g><g><g><g><g><path style="fill: none;" stroke="rgb(255, 112, 67)" stroke-width="2px" d="M37.35370347222222,-8.615359321419277L37.53643472222222,5.277122367983878L37.62545763888889,10.643296798666057L37.65669375,22.59151481828718L37.87378472222222,10.207688524625866L38.17052777777778,5.559212091769865L38.21425833333333,-3.657569701221348L38.46883263888889,-13.726595888929666L38.63126041666666,27.03105050292433L39.3575,40.340046337493334L39.41997222222222,18.216020918208784L39.75263680555556,17.594605908476012L39.80105277777778,24.93315315065533L39.84322152777778,27.617709266220572L40.24304375,10.449545977113985L40.269594444444444,26.331326301811117L40.58351736111111,7.139212075164409L41.292577083333335,32.41719053902224L41.41595972222222,31.499495647652452L42.39989722222222,46.80055598162306L42.691954861111114,50.76006008233932L42.77785416666667,54.70094008771778L42.85125902777778,68.94103192108692L43.319800694444446,29.897009908052382L43.82270208333334,35.429748057659964L44.40057013888889,45.309639992915805L44.58798680555555,35.19718700206391L44.759785416666666,41.63822497758963L44.93626944444445,55.190677242480305L46.488704166666665,61.02095931291744L46.57460347222222,42.00440282535632L46.64488472222222,15.098781060648264L46.90414444444444,25.870740497989857L47.04626875,42.861601251294275L47.10717916666667,57.718713169056244L47.27585416666666,76.36408862755187L47.307090277777775,87.13658066413096L47.46327083333333,73.77030836833293L47.46639444444444,74.7217932301329L47.522619444444445,36.81774515852726L47.69910347222222,11.779330825480173L47.74908125,43.758250222010844L47.88495833333334,34.134778538586716L48.29883680555555,50.39286588385227L48.67523194444444,55.6339941874416L48.69709722222222,50.867032865004006L49.421775000000004,58.44244738180417L49.479561805555555,32.04452339863167L49.53110138888889,52.04982787999741L49.72164166666667,50.63425807734271L49.74506875,45.079126301884315L50.09335138888889,50.70611245243528L50.19955416666667,70.65012482588753L50.20111597222222,54.30332445970336L50.23079027777778,77.22337913287377L50.546274999999994,73.92951040728505L50.70870277777778,28.465575970790468L50.95702986111112,27.342387060869754L51.394335416666664,19.977517807810926L51.42088611111111,57.834964054423224L52.16274375,66.59050235307076L52.16430555555556,68.36448078546441L52.79215138888889,77.1740004253001L53.5262,79.90047465453213L53.86042638888889,98.04392606133021L53.880729861111114,80.06235907741663L53.93226944444445,97.13856987517046L54.04003402777778,86.30854352927783L54.088449999999995,82.53806977937569L54.530440972222216,58.37937549632757L54.66787986111111,41.101158040058436L54.688183333333335,49.60811164813744L54.80063333333333,47.267143749222214L55.03178055555555,77.02313473404945L55.14266875,77.37914310444296L55.21607361111111,84.58026779323161L55.22700625,77.39208435791336L55.762705555555556,58.38314117656708L55.790818055555555,70.39999807576275L56.17658402777778,67.5537361752983L56.565473611111116,76.43415267777418L56.73883402777778,84.30949442095742L56.92468888888889,46.548969116849804L56.93093611111111,69.91450773152299L57.034015277777776,76.9248142449414L57.14802708333334,88.30067054530114L57.299522222222215,72.19074349463064L57.3213875,41.419088201880925L57.58220902777778,36.49426321814087L57.59157986111111,70.92628211605327L57.61969236111111,94.74675879077779L57.66186111111111,93.07006446836392L57.69153541666667,55.18516370843649L57.719647916666666,65.35802788252116L57.816479861111105,81.34177089461375L58.07105416666667,72.98974441128185L58.19756041666666,64.25591101430184L58.25534722222222,72.46959790398077L58.94566527777778,58.10594726687309L59.31268958333333,52.4954521422722L59.378285416666664,64.92117723614803L59.84057986111111,77.10498714620368L59.86400694444444,78.9665400902897L60.01394027777778,75.49504040899693L60.28881805555556,50.527720995085346L60.51215625,32.795329700313175L60.72768541666667,39.545021641494145L60.81514652777778,74.60957425578908L61.266508333333334,89.05926049348402L61.47422847222222,90.54394406137875L61.56793680555556,102.36271240745789L61.924028472222226,115.9532314639378L62.241075,94.10846662825874L62.40194097222222,95.01966477517205L62.70493125,99.41949571272086L62.864235416666666,107.20077875763387L63.036034027777774,103.45321172779924L63.09225902777778,105.78447303954437L63.285922916666664,116.06128576417967L63.46553055555555,102.63051608216885L64.14023055555556,99.02959159619881L64.40105208333334,106.07926424507663L65.31470833333333,121.67317450442532L65.37093333333334,104.4713143253244L65.44433819444444,102.14052386247617L65.59114791666667,107.73351495959463L65.65362013888888,95.24375399946035L65.75357569444444,88.67171088158406L65.79262083333333,75.8432168143947L65.83478958333333,80.44300988781208L66.23461180555556,101.63353437166067L66.35018541666668,46.25241739142328L66.66879375,64.81990372889274L66.77343472222222,87.34723749907633L66.89213194444444,49.98012936205755L67.42002222222222,59.14893062765056L67.48093263888889,92.16728945138843L68.17437430555556,103.9154819864797L68.5210951388889,115.72276211790845L68.69757916666667,116.35358407504918L68.86156875,112.57623890881275L69.71431458333333,109.47162068244538L69.775225,106.25567357752752L70.32654236111111,66.09785749324578L70.92159027777778,66.4794855613018L71.04653472222223,76.36560714235931L71.16835555555556,72.24554078573603L71.24019861111111,83.98744687464605L71.686875,89.85046714262228L72.07264097222222,94.58598527590074L72.37719305555555,115.4073335694053L72.55211527777779,105.33193084101548L72.57710416666666,118.91217136830491L72.69736319444445,99.43163948625565L72.70829583333334,78.72122101110362L72.99098263888888,96.58252204431379L73.17683749999999,95.08213703020384L73.29865833333334,83.6202076595066L74.03583055555556,59.588479323449036L74.42003472222223,73.3270821233167L74.61057500000001,75.60230201241812L74.78549722222222,93.03898818199302L75.23061180555555,91.13673924746791L75.37429791666666,95.46065477337049L75.4430173611111,85.84702488664156L75.58201805555557,90.06412375797846L75.60856875,73.91999464231739L75.98652569444445,100.29268440155988L76.12708819444444,90.44523405163768L77.09072222222221,83.83982410507967L77.1125875,79.17686638222678L77.12508194444445,98.67310574046695L77.51709513888888,97.98963615233852L77.55301666666666,100.543430140228L77.64828680555556,104.12877380735333L77.81071458333334,106.988631587545L78.23084027777779,97.03922326643462L78.23552569444445,91.51366563009736L78.32298680555556,92.53384154061983L78.4619875,89.25203942072694L79.03204652777777,94.33405356742324L79.08827152777778,94.41752291701664L79.76140972222223,100.09371109445351L80.08001805555554,112.06532852136763L80.83437013888889,95.25213386585519L80.95775277777778,65.68879710418106L81.10924791666666,85.24622441847399L81.62152013888888,93.26354403656288L81.90889236111111,67.6284353516195L82.22437708333332,62.33187517712676L82.46489513888888,65.75703967028953L82.49769305555556,91.66532034673747L83.39104583333334,110.70840574502026L83.5394173611111,96.27455178915902L83.57377708333334,107.8682668418851L83.90175624999999,92.7682002551059L84.55771458333334,92.4236232558906L84.63424305555556,101.82497869998335L84.79979444444444,93.5799280141003L85.25271805555556,90.26893700863167L85.26365069444444,87.49899007502343L85.47449444444445,82.57300859465089L85.68065277777777,56.24319686158826L85.83370972222222,66.22255340614515L86.26164444444444,67.75425998806116L86.35379097222223,92.02020398416614L86.41313958333333,103.12814799629744L86.67864652777777,108.99541581233203L87.01599652777779,106.96687499618444L87.38926805555556,95.63584519586513L87.42831319444446,95.24329833782643L87.44549305555554,95.88337194679337L87.47204375,103.1637519374976L87.49078541666665,101.02030846330462L87.69382013888888,91.80024066479764L87.77503402777778,100.55200945384358L87.77815763888889,108.20358847407732L88.02648472222224,96.93824034528872L88.24982291666667,55.75981374738775L88.38257638888889,79.57831250523425L88.96512986111112,88.77637802895843L89.16972638888889,85.16634122334086L90.1849,98.14419014932014L90.75652083333334,88.65097606588184L90.96267916666666,91.28027052526937L91.07512916666667,81.18201638963978L91.11105069444444,69.83739996079895L91.20319722222223,48.71243811323819L91.29378194444445,54.683425046054L91.29846736111111,77.05203542831389L91.52180555555555,86.4437868697813L92.06999930555556,95.85826842953983L92.31051736111111,106.37122837287322L92.75250833333334,100.27504792560418L92.80560972222221,74.42972000091838L92.86652013888889,70.84707610398274L92.87745277777778,80.72255268448437L92.90712708333334,97.91147084834483L92.93211597222222,79.0695441591877L93.39441041666666,74.48811769653192L93.73332222222223,86.35855671566027L93.78798541666667,85.06705088198959L93.83796319444444,83.68865182865129L94.01444722222223,96.63083926062863L94.02694166666667,100.00479072911192L94.13939166666665,77.45969115246919L94.15969513888889,85.19480312198154L94.18780763888888,79.34369922476859L94.48767430555556,84.40131648062378L94.50173055555555,98.88757451283162L94.8765638888889,70.76938692276016L95.8464451388889,89.90353712763986L95.87299583333333,84.69304824666145L95.93390624999999,102.80233200592376L96.2603236111111,97.07782696606263L97.15211458333334,64.51443372918096L97.30204791666667,59.92865929456309L97.68312847222222,91.78782668084952L98.01110763888889,79.47358212394151L98.03453472222222,90.85066437585729L98.15010833333334,74.7370919994329L98.40624444444444,58.72145918678133L99.00441597222222,62.374718038266224L99.07001180555557,89.81815789969286L99.18246180555555,84.30718983311365L99.48232847222222,73.77925599872418L99.69629583333334,87.85844861572592L100.0633201388889,105.91738117400173L100.48344583333333,104.18551083453514L100.59277222222222,102.0287628057481L101.0082125,98.93909494774825L101.02070694444446,96.38992908714584L101.49705763888889,82.46819686960204L101.5454736111111,79.54915216011419L101.70321597222222,90.5056700852073L102.53409652777778,79.06917914429646L102.78710902777777,82.44244656967723L102.80428888888889,90.01851573740008L103.17443680555554,82.77984450551605L103.64922569444444,95.8571864503189L103.6960798611111,98.09930645153308L103.960025,102.53781724557508L104.03499166666667,102.21649917563933L104.22865555555556,80.27737895906648L104.56444375,74.99610002196242L105.06109791666665,71.0494689783836L105.25476180555555,77.53383984216359L105.46716736111111,56.95359636573974L105.67332569444444,87.64138934003702L105.71705625,88.60302428297632L105.7982701388889,88.45120180781147L106.43861041666666,101.12734683534778L106.62134166666667,116.06218301612898L106.67288125,110.91910961484173L107.1617263888889,114.78353575000321L107.45066041666666,85.61937455611915L107.60684097222223,101.8848574237674L107.7552125,59.34964977363643L107.93169652777777,71.09533893859326L108.13629305555554,69.5724947142359L108.58921666666666,74.65611178205945L108.94218472222222,87.07593074754797L109.02652222222223,102.11369552949621L109.23736597222222,92.99866009199353L109.78712152777777,105.63625540848811L109.99796527777778,110.8362694517746L110.04325763888889,84.56232186472262L110.10572986111112,92.49470088372139L110.16507847222222,101.84101152711813L110.29158472222223,104.49126537319245L110.369675,81.91714060411587L110.49774305555556,95.62528376493296L110.82884583333333,108.15659110524321L110.8444638888889,92.89429205225744L111.42389374999999,107.22345100085043L111.57695069444445,97.84434166991772L111.60037777777778,108.41414305236376L111.64410833333334,107.76924007932207L111.67065902777779,102.02058187603868L111.67846805555554,94.27801325011202L111.831525,104.63372392855852L112.07360486111112,96.82664700092536L112.40939305555555,87.68375049377478L112.66709097222221,94.11294910219308L112.71238333333332,103.54531623367666L113.15125069444444,90.42811308469891L113.17311597222222,89.43981064061235L113.30430763888889,101.81717275649254L113.5713763888889,104.65775520247188L113.70881527777777,104.20809214646798L113.83688333333333,68.46241406998146L113.84781597222222,81.87735356778566L114.17735694444444,88.63747249478499L114.2210875,104.62862629031777L114.31791944444444,100.09396867654107L114.45535833333334,98.54205853463044L114.53344861111111,88.75786929560202L115.4471048611111,87.99410451193151L116.03278194444445,54.66728863560854L116.54505416666667,76.8085809167844L116.54505416666667,65.2206979731692L116.59034652777777,72.3509237164243L116.99797777777778,75.92916278207205L117.31190069444445,94.16999881067218L117.46339583333334,92.8779359406134L117.5945875,99.30246191149355L117.63675624999999,84.56852249160649L118.0693763888889,69.12689922067666L118.16933194444445,90.31441642232622L118.46295138888888,92.60659604005744L118.63162638888889,89.57670250971752L119.21730347222223,90.79513397180818L119.24697777777777,90.17566341676581L119.40315833333334,107.20753891329926L119.7311375,113.89002117550946L119.93885763888889,103.64983302376613L120.05755486111111,108.16047364635435L120.24497152777778,108.43222677655916L120.48861319444444,104.62115785150468L120.61824305555557,108.3712615753337L121.11645902777776,90.66692360550907L121.43662916666666,102.39416289514747L121.446,104.51754183433322L121.727125,115.55848164327065L121.85206944444445,74.21665912846996L122.34716180555556,93.86185251462622L122.3768361111111,95.471744640399L122.43306111111112,95.03139097912846L122.63921944444444,107.72268507733187L122.72355694444445,101.47508852692987L123.09839027777777,101.28842906661357L123.24676180555555,96.6693347007485L123.33734652777778,97.85295477571795L123.53257222222221,96.72996816374486L123.89178749999999,100.6038555463411L124.16354166666666,105.49907803000553L124.40093611111112,108.86968027926412L124.9288263888889,104.35430105553226L125.87684236111112,107.67762364760729L125.87684236111112,98.25299593100365L125.98616875,58.8077380614842L126.00959583333334,79.1680833731511L126.04083194444445,67.61879376974218L126.37818194444445,76.11324157957144L126.66711597222222,100.35100003268664L126.99353333333333,98.76330427638497L127.00290416666667,86.27490755505445L127.08411805555555,78.44902687422682L127.34181597222222,62.72279623241573L127.78224513888888,71.92036713714212L127.80879583333333,87.99257815661912L128.22267430555556,77.487529219883L128.66310347222222,88.67215059500771L128.70839583333333,81.60727159262798L128.88331805555555,99.19541024763049L129.07698194444444,81.51126340388454L130.3607861111111,85.08841867660998L130.835575,84.28259146163175L130.9089798611111,95.2455051627714L131.09795833333334,102.07666755240908L131.28068958333333,113.56765867037625L131.43062291666666,125.683407859582L131.51183680555556,128.29224267398018L132.08814305555558,114.13818994638143L132.22245833333332,98.2772456942607L132.29117777777776,114.08372053734116L132.36614444444444,77.66781408328802L132.3989423611111,52.96265352212781L132.69568541666666,56.75083802904723L132.80969722222224,63.061877839362836L133.47815,79.09425791954769L134.06695069444444,93.02113471988302L134.10911944444445,99.65603392162004L134.2200076388889,92.7822455783968L134.84472986111112,98.4931304735115L135.0321465277778,91.28929822934691L135.34606944444445,112.04235081400289L135.76931875,107.8370293693293L135.88333055555555,112.8611377055376L136.17226458333334,119.66474733501252L136.18163541666667,89.51203592866406L136.24879305555555,86.157394753395L136.5627159722222,72.9844432184091L136.64549166666666,102.9816399698848L137.13902222222222,112.20645148369042L137.34049513888888,103.6142468649886L137.60287847222222,84.0774108707155L137.72001388888887,97.94644519324572L137.96521736111112,106.50109380713386L137.96990277777778,96.6244627668338L138.23853333333335,103.17774925135832L138.2635222222222,106.90152041168963L138.6617826388889,117.78407143236372L138.75705277777777,108.0279166470836L138.97570555555555,116.59912132745208L139.73474305555555,123.31299563065303L139.98463194444446,119.4695398915716L140.09708194444443,122.80191588231372L140.1330034722222,117.25213797288208L140.54375833333333,114.93263102112452L140.57499444444443,110.26342928283357L140.59842152777776,108.78270507230128L140.60623055555556,100.42104764207463L140.66557916666665,94.93380968525565L140.6921298611111,97.66624298992488L141.1497388888889,90.00273170651636L141.33559375000002,75.4133478080132L141.51832499999998,87.98674148916594L142.01029375,89.05316565692061L142.03840624999998,98.45063572382708L142.27892430555556,103.27568863931764L142.27892430555556,118.05636344613711L142.71154444444446,110.50836947716523L142.8224326388889,124.28375334535389L143.05201805555555,119.83026470538586L143.1738388888889,96.23504059193498L143.5252451388889,94.4105918626664L143.62363888888888,105.3421592337297L143.86415694444443,95.5723213745598L143.90944930555554,98.93311216941143L144.0031576388889,102.51851868039765L145.02301666666668,106.64760688487529L145.0854888888889,99.21796921815778L145.49312013888888,102.61081282601538L145.79298680555556,104.12957186285126L146.4130236111111,98.93268361260574L146.95809375000002,119.25785768967916L147.03618402777778,89.87737428213387L147.14238680555556,86.65053700247545L147.23765694444444,89.62770653867209L147.28294930555555,69.57870131792713L147.33605069444442,95.05858441777282L147.33917430555556,115.84915789268763L147.93734583333332,111.26071645648689L148.1247625,115.09147993970757L148.28406666666666,111.28265154659059L148.377775,107.81120497315707L148.96501388888888,107.85480344491948L149.04622777777777,103.61225213824362L149.1867902777778,99.90467334221988L149.19772291666666,97.83098083097453L149.22583541666668,111.47350723808235L149.25707152777778,87.37506522098319L149.3304763888889,98.79881766652547L149.36952152777778,118.75148734727787L149.5100840277778,117.05031191277081L149.57724166666668,120.78755585531934L149.69750069444447,113.9954725365671L150.34252638888887,91.97797662978367L150.53306666666666,93.12971478083726L151.14997986111112,100.66466779934761L151.20151944444444,78.56124507443545L151.2499354166667,93.62702287916206L152.01522013888888,112.65683631037986L152.42441319444444,125.34455206653664L152.73365069444444,129.5137967238497L152.83985347222222,136.79999482748934L152.85078611111112,128.8758079655053L153.36462013888888,121.62703456116208L153.5676548611111,110.14325871248536L153.75975694444446,119.6143961097568L153.87376875,115.4308323693734L153.88938680555557,105.58723527684579L153.9409263888889,115.7586197137521L154.06587083333335,118.8178969117812L154.1377138888889,129.02735734837125L154.17519722222224,137.85104088101906L154.32513055555555,140.54247086712195L154.562525,141.39136560242457L155.38872013888889,133.87460167396713L155.51210277777778,127.90953305923134L155.71982291666666,135.11013129093163L155.80884583333335,139.14530994437882L156.00875694444446,143.40643198903052L156.3398597222222,144.3969834438899L156.3789048611111,121.69739692163103L156.5132201388889,131.56631844938775L156.5413326388889,134.4435191881715L156.73499652777775,138.1886180151736L157.08640277777778,139.28581721241684L157.10826805555556,141.11389549020177L157.24726875000002,143.6909329798415L157.7048777777778,147.7083662811872L157.72205763888888,146.95569225334864L157.8548111111111,142.98170974960172L157.8548111111111,144.72617163127808L157.9047888888889,148.60017820218889L158.19840833333333,140.75043093275838L158.35927430555554,142.7001732624281L158.75597291666665,147.04792797486238L159.27136875,149.74856908273847L159.79145,145.4734906086454L159.97574305555554,137.1972549843269L160.44740833333333,139.16810963824256L160.55204930555556,136.67956288173713L160.71135347222224,143.60551469036886L160.8644104166667,143.2581451133427L161.10024305555555,147.46731698784453L161.11742291666667,147.064189358194L161.26735625,143.37159571864564L161.54691944444443,143.63551628481363L161.60626805555555,138.65329253757605L161.76401041666668,137.97344912639028L161.83116805555557,142.81414875567415L161.95767430555554,147.43650380480562L162.15133819444446,145.84542411242887L162.45745208333332,143.88871013924458L162.56990208333335,146.96800098153938L162.7323298611111,149.4496700604736L162.85727430555553,148.83375746846076L162.99158958333334,147.93414251410886L163.11341041666668,146.20801036598638L163.46169305555554,144.72116729344341L163.64286249999998,144.65635594114906L163.89118958333333,137.780527291508L163.96147083333335,143.6613317804405L164.13795486111113,147.22908693116122L164.3769111111111,143.2543656278325L164.93759930555558,147.2764386384888L165.2562076388889,149.8478510140898L165.28588194444447,149.8739006584598L165.29369097222224,151.35067949686726L165.73255833333334,151.9915405481713L165.87780625,149.5260372769628L166.31198819444444,148.55536243091785L166.4056965277778,149.44370709521033L166.46973055555554,151.1009295264629L166.56343888888887,149.40146912960694L166.76803541666666,141.6644250039964L166.9148451388889,141.72099507657938L167.43805,134.95808272843513L167.61921944444444,139.7189471574721L168.0284125,145.60345272136314L168.10806458333332,148.62480362899652L168.7390340277778,150.47472915141313L168.8967763888889,151.51294958942253L169.1310472222222,148.85242747874926L169.52306041666665,150.8197296983711L169.99160208333333,147.73206792931035L170.0634451388889,147.52795402503176L170.1618388888889,150.16753422496416L170.38830069444447,151.33621282445012L170.75376319444445,150.50653528610837L170.78499930555554,150.99089362287503L171.17232708333333,150.45859634914387L171.77362222222223,150.95278030358784L172.04537638888888,150.94294968380353L172.27183819444443,151.46533575733793L172.61855902777776,150.91867948520357L172.6216826388889,146.60429919927225L172.66541319444445,148.10033364396634L172.9418527777778,146.67221907705868L173.0777298611111,148.27936998564485L173.4291361111111,146.9867312226205L173.75399166666665,144.83957651338034L174.0132513888889,147.205067575461L174.0554201388889,149.32120304285667L174.09915069444446,150.68171342002856L174.10227430555557,151.57258324645466L174.31780347222224,150.3695151795298L174.353725,147.92785325135887L174.35528680555555,148.51604865036072L174.5224,150.73023639942204L174.6098611111111,150.91833121970294L175.03935763888887,152.06899378833174L175.50477569444445,152.6662504591763L175.74997916666666,152.65695992816805L176.1841611111111,151.96591902201962L176.48871319444444,150.04813128218407L176.66675902777777,146.57319513264508L176.67612986111112,147.53553612114914L176.90415347222222,145.12156634081558L177.02285069444446,147.9992553326437L177.0447159722222,149.24933214085993L177.20714375,146.68655259071406L177.29304305555556,149.1693954298414L177.3367736111111,151.33682927963238L177.37581875,141.69660344184697L177.7350340277778,146.3329272208289L177.7928208333333,145.90280681477043L178.00210277777776,148.3913009561661L178.03802430555555,150.5379554866292L179.00790555555554,139.78589634230957L179.02508541666668,139.53664961237445L179.02977083333334,144.35944041477882L179.0797486111111,148.052772285743L179.39367152777777,143.33058628273216L179.55609930555553,142.32495919515017L179.87314583333335,145.5848019131978L179.95435972222222,147.26364286297317L181.33811944444443,142.19950069370125L182.21116875,147.04280372787866L182.5235298611111,149.73430623608442L183.2169715277778,149.32649947403436L183.74486180555556,147.95778704702L183.82607569444446,148.81530548643553L183.9963125,148.7399318442433L184.68194513888886,150.48927169744306L184.8615527777778,147.72801376106818L184.90059791666664,149.30394666625546L185.07864375,144.03402417441302L185.17547569444446,143.76019330495652L186.01260347222222,148.05767453416618L186.17659305555557,150.29407880428096L186.5201902777778,150.9213499052683L186.5233138888889,151.82332785566803L186.83879861111112,150.12903087520692L186.8606638888889,146.68386001249607L187.15428333333332,146.17670882261072L187.15584513888888,142.0383422554509L187.58221805555556,137.9027404744015L187.62594861111108,144.20200457028068L188.51149236111112,143.62361923218677L188.8113590277778,147.41896849787776L188.91756180555555,149.5906171734127L189.24710277777777,149.52773193925574L189.3408111111111,149.75287570005628L189.53603680555554,145.27194945407493L189.73594791666667,148.54385882850042L189.94054444444447,150.79469300648898L190.64335694444443,149.0952032169183L191.12907847222223,149.92792310926197L191.25402291666668,146.53913866497803L191.55076597222222,149.5443567962511L191.6600923611111,149.3235714305081L192.18954444444446,150.38416792563427L192.92359305555553,151.69568240113156L193.35933680555556,150.85821472982823L193.51707916666666,151.3679006122366L193.92627222222222,150.72224916504715L193.9949916666667,151.16935845307643L194.00592430555554,151.13376228864274L194.24956597222223,150.34553666922616L194.3948138888889,149.44526342012387L194.42136458333334,151.1514589754218L194.76808541666665,151.55613529786314L195.20851458333334,151.6239913931778L195.21788541666666,151.62267508097236L195.3756277777778,149.9456397532686L195.4662125,151.3077481859484L195.94724861111112,152.65397025487175L196.19557569444444,152.83473941887232L196.5516673611111,153.10542728873975L197.64649305555554,151.63271713777118L197.7074034722222,152.45319919600325L198.24622638888889,149.0544055331602L198.41646319444442,149.28805247717227L198.44457569444447,151.32486823363976L198.82721805555553,148.86776011534855L198.87563402777778,150.3318623503943L198.91780277777778,149.19937474285956L199.38946805555554,145.64840221259234L199.87518958333334,146.80884270878576L199.9298527777778,149.6326376558062L199.95327986111113,148.6451675749252L201.04654374999998,145.0252960149306L201.12775763888888,147.25180917822468L201.2402076388889,146.2414857869932L201.36983750000002,148.84052694294385L201.64627708333336,149.25062958868463L201.66345694444445,150.6436341939695L201.7805923611111,150.97205738057656L202.46778680555556,147.5179293041227L202.65676527777777,148.8678875481962L202.73797916666666,150.26702716147176L202.87229444444444,149.40173549172445L202.9269576388889,149.89603254030445L203.1581048611111,150.1087328185457L203.24244236111113,150.95570360659468L203.5985340277778,150.27149620377367L203.68911875,147.98949014975634L204.02803055555557,148.74786991676095L204.55748263888887,147.02695835113767L204.63244930555555,144.06701204466964L205.79755624999999,146.79975974135485L206.81897708333335,149.7605190549665L207.10010208333333,138.9141751646622L207.9138027777778,142.7565471616163L207.99033125,146.21942911218252L207.99970208333335,148.6327096487322L208.18555694444444,145.6891336733245L208.8227736111111,144.42117068285603L208.8930548611111,145.59958586165226L209.12420208333333,140.2720236320431L209.25539375,135.62733750725596L209.25695555555555,134.35093689373022L209.41625972222224,140.03212273365787L209.73799166666666,143.59132239071448L209.74111527777777,147.22179482637594L210.02380208333332,148.7681200936958L210.06284722222222,151.02753640923055L210.29087083333334,151.42895779736727L210.4111298611111,150.8159590958231L210.51108541666667,152.15020945064268L210.67351319444444,152.4193603240969L210.79533402777778,151.62835792562498L211.03429027777779,152.6372715852328L211.13424583333332,153.2475624663632L211.64339444444445,153.61629801291232L212.45397152777778,153.72321930109266L212.54299444444445,153.88774498450042L212.55705069444443,153.3059615486698L212.7460291666667,152.46169059239844L213.55504444444443,153.30525655009163L213.55660625000002,153.47851787035353L213.56597708333334,153.75399824097565L213.68155069444444,154.14150157937297L213.81898958333332,153.75596614252856L213.91894513888892,153.88647503299316L213.96267569444444,153.96059200848816L214.08918194444445,153.9777956616025L214.1375979166667,153.89749052590972L214.3265763888889,152.0443964717796L214.46713888888888,152.9143300454623L214.6842298611111,153.1937003434185L214.79511805555558,153.7943824678948L214.9169388888889,153.9466965124184L214.99034375000002,154.2694693431362L215.6759763888889,154.42266843170552L215.98677569444442,153.76560620785133L216.1070347222222,153.94379065525754L216.2382263888889,154.22434941287176L216.6286777777778,154.39650377544962L216.66147569444445,154.50196706004857L217.12845555555555,154.45995053498697L217.32992847222224,154.3623885682151L217.57200833333334,154.35758001333028L217.7281888888889,154.39629361763923L218.13738194444446,154.36553995451527L218.23265208333333,154.51059991205452L218.72774444444443,153.97073774686288L219.37589375,154.0750748583724L219.54456875,154.13467828148902L219.84912083333333,154.07787971624313L219.92564930555557,152.6481566126858L220.26612291666666,153.42731165860383L220.47071944444443,153.94049155696803L220.48165208333333,154.26195891192302L221.4421625,154.40128741258826L221.52181458333334,154.4546191370156L222.31208819444444,154.5749877944986L222.48076319444442,153.71270121666194L223.11641805555556,154.0456847908044L223.3788013888889,153.94843642484807L223.39129583333332,153.61844807309905L223.95823124999998,153.7695684817016L224.07224305555553,154.17315965810894L224.51579583333333,154.3581147814958L224.61575138888887,154.04620868117624L224.63761666666667,148.65698626131422L224.66260555555553,149.0773501097596L225.12958541666666,151.3707207619808L225.2404736111111,152.67476562736402L225.3107548611111,153.32263228939755L225.65122847222221,153.555881885569L225.7121388888889,153.80209674112837L226.2103548611111,154.15818859143758L226.4821090277778,154.40376543106856L226.49772708333333,154.5395750856532L226.65234583333333,154.62716670370898L227.1411909722222,154.61408734939576L227.30830416666666,154.34362331105518L227.3957652777778,154.3958479379013L227.4925972222222,154.33836999025314L227.78621666666666,154.22279838911516L227.86586875,154.4332235526551L227.87523958333333,154.5759472353166L228.0767125,154.58088168817196L228.28911805555555,154.6631521512117L228.4812201388889,154.50681801015412L228.7764013888889,154.6356520049231L228.83887361111113,153.93553841516115L228.96225625,154.03518017622673L229.14811111111112,154.08550054426695L229.8165638888889,154.28384956774536L229.91651944444445,154.26265446279896L230.05552013888888,154.42116162141832L230.1258013888889,151.819593223695L230.45690416666665,152.9121370436335L230.68336597222222,153.38904486725235L230.72865833333333,153.8536352731556L231.1440986111111,153.68782740937294L231.51112291666666,154.12301253739966L231.71884305555554,154.18002816119179L231.88595625,154.28710390078058L232.75900555555555,150.8753412422361L232.87145555555554,152.3686099592937L232.98390555555557,152.968542843705L233.02763611111112,153.61838289478158L233.1541423611111,153.74089397715767L233.45869444444443,153.79752850369954L233.57739166666667,153.99209374389852L233.5867625,152.52088312030915L234.06623680555558,153.31216568184544L234.28176597222222,153.9072133835116L234.29894583333333,154.13889455413573L234.39421597222224,154.16235150167796L234.43638472222221,153.9763260380593L234.6862736111111,153.72095879591507L235.01581458333334,152.83005452857614L236.08721319444444,153.52197577778222L236.23402291666667,153.7632918564899L236.24495555555555,153.92497604539534L236.30118055555553,147.4166071561011L236.4995298611111,150.30643571001485L236.50733888888888,152.0506692265403L236.84937430555553,153.0601233711798L237.35383750000003,153.7437631589746L237.5615576388889,154.04791667178722L238.09100972222222,153.6865920639959L238.14567291666665,154.05562156539722L238.38931458333332,154.13405745388008L238.44397777777777,154.18763626313768L238.64545069444443,154.32161763725617L238.71885555555556,154.50206814657412L239.05464375000003,154.62764312595584L239.1983298611111,154.67666053337132L239.2092625,154.35309361256523L239.35763402777778,154.25012938879348L239.47164583333333,154.33580323876393L239.6902986111111,154.5000769604531L239.80118680555557,154.60788037534277L239.8386701388889,154.66106817517115L239.8636590277778,154.64991038974185L240.24005416666668,154.38096590600048L240.24473958333334,154.38983964777967L240.36812222222224,154.51146206174482L240.3696840277778,154.64288263269776L240.4384034722222,154.66750786154574L240.74451736111112,154.61762455075447L241.05531666666667,154.59912287574687L241.07874375,154.49256790805862L241.45045347222222,154.20054608660345L241.51292569444445,154.0256072943056L241.69721875,154.31549705950286L242.01426527777778,154.40892106227795L242.0173888888889,154.5147082682414L242.3469298611111,154.53530530190247L242.5437173611111,154.51205719742643L242.71707777777777,154.6428150757162L242.75299930555553,154.03896294677304L242.9029326388889,154.21185692932636L243.00601180555554,153.88630236856L243.02943888888888,154.22270920975123L243.2965076388889,154.4771952873654L243.69945347222225,153.67663177229088L243.7041388888889,154.04594233260823L243.91185902777778,154.0235119320528L243.9352861111111,154.2551069681392L244.22890555555554,154.3963797196475L244.3757152777778,154.36436253814264L244.84425694444442,154.4569481761954L245.0347972222222,154.3427615718068L245.7422951388889,154.509827646972L245.96563333333333,154.5382875790365L246.29985972222224,154.21664452792214L246.30142152777776,154.39524630153778L246.39669166666664,154.27597751584412L246.6871875,154.25633817831732L247.3650111111111,154.4960961158279L247.88977777777777,154.57625248224755L248.37706111111112,154.63992868477834L248.40048819444445,154.7089905835076L248.61601736111112,154.6847432849934L248.91119861111113,154.73533865500272L249.01427777777778,154.73599756472578L249.14703125,154.40262186058322L249.4781340277778,154.54259200112796L249.48438124999998,154.65276979039177L249.49999930555555,154.69323991018572L249.80455138888888,154.40542331503653L250.24341875,154.33268426756158L250.28246388888888,154.48876594543512L250.37304861111113,153.99714983725582L250.59638680555557,153.97476636900922L250.8868826388889,154.2193027915622L251.0899173611111,154.46151025784405L251.21954722222222,154.19043327684636L251.63030208333333,154.42358435580394L251.95984305555555,154.4453701429919L252.3159347222222,154.5418527277324L252.7844763888889,154.38061831903536L253.24989444444444,154.51283952899027L253.57475,154.3613588709071L253.63253680555556,154.46366775622576L253.70594166666666,154.39439633840686L254.21352847222224,154.48534176560858L254.2775625,154.27781482227218L254.73985694444443,154.48637867979747L254.7585986111111,154.61180184491005L254.95070069444444,154.35152152155354L255.12406111111113,154.46341224595614L255.46141111111112,154.46252805045074L255.46765833333333,154.46395456225173L255.6581986111111,154.52144035059507L256.7311590277778,154.6053270271915L256.86859791666666,154.68444213101253L256.8982722222222,154.05514309900394L256.94668819444445,154.3218667185151L257.11536319444446,154.51106906389256L257.20282430555557,154.4530233738128L257.58546666666666,154.590883996922L257.65418611111113,154.29636718591345L257.6869840277778,154.44971058523828L258.3366951388889,154.09645030353175L258.3976055555555,153.9489837822539L259.8422756944444,154.27860124631061L259.8532083333333,154.34577300085624L260.05468125,154.41209504565L260.2998847222222,154.3257574830079L260.6872125,154.4636153306737L260.82308958333334,154.14183691598024L260.9995736111111,153.78180653576283L261.92260069444444,154.15241305663722L262.05066875,154.36889005681596L262.91747083333337,154.51845732319785L263.0720895833333,154.4011561363246L263.3094840277778,154.5205544972006L263.36727083333335,154.64168366751574L263.3985069444445,154.68562554694117L264.201275,154.51081494019567L264.22001666666665,154.2946363927492L264.2684326388889,154.39629652449895L264.76196319444443,154.5058860054577L264.85879513888887,154.57718373065975L265.10556041666666,154.66830784216992L265.15553819444443,154.39553335985823L265.8817777777778,154.51585416603854" fill="none"></path></g></g></g></g><g opacity="0.2"><g><g><g><path style="fill: none;" stroke="rgb(255, 112, 67)" stroke-width="2px" d="M35.91528055555556,-69.72703215479854L36.07927013888889,9.55427411198616L36.46815972222222,-114.51337945461279L37.064769444444444,-22.156296640634537L37.327152777777776,11.011153042316437L37.35370347222222,22.229624569416046L37.53643472222222,26.115843906998634L37.62545763888889,18.692558214068413L37.65669375,40.51384153962135L37.87378472222222,-8.36805072426796L38.46883263888889,-28.830135136842728L38.63126041666666,88.16752000898123L39.3575,60.30354007333517L39.41997222222222,-14.970017194747925L39.75263680555556,16.662483394145966L39.80105277777778,35.94097401201725L39.84322152777778,31.644543439149857L40.24304375,-15.302698954939842L40.269594444444444,50.1539967879653L40.58351736111111,-21.648959264159203L41.292577083333335,70.33415823429823L41.41595972222222,30.122953310608864L42.39989722222222,69.75214648246765L42.691954861111114,56.69931623339653L42.77785416666667,60.61226009577513L42.85125902777778,90.30116967111826L43.319800694444446,-28.669023111462593L43.82270208333334,43.72885528206825L44.40057013888889,60.1294778957963L44.58798680555555,20.02850751578808L44.759785416666666,51.29978194087744L44.93626944444445,75.51935563981533L46.488704166666665,69.7663824185729L46.57460347222222,13.479568094015121L46.64488472222222,-25.259651586413383L46.90414444444444,42.02867965400219L47.04626875,68.34789238125086L47.10717916666667,80.00438104569912L47.27585416666666,104.33215181529522L47.307090277777775,103.29531871899962L47.46327083333333,53.72089992463589L47.46639444444444,76.14902052283287L47.522619444444445,-20.03832694888115L47.69910347222222,-25.778290674090385L47.74908125,91.7266293168068L47.88495833333334,19.699571013450623L48.29883680555555,74.77999690175056L48.67523194444444,63.4956866428256L48.69709722222222,43.716590881347656L49.421775000000004,69.80556915700436L49.479561805555555,-7.552362576127052L49.53110138888889,82.05778460204601L49.72164166666667,48.510903373360634L49.74506875,36.74642863869667L50.09335138888889,59.14659167826176L50.19955416666667,100.56614338606596L50.20111597222222,29.783123910427094L50.23079027777778,111.60346114262938L50.546274999999994,68.98870731890202L50.70870277777778,-39.73032568395138L50.95702986111112,25.657603695988655L51.394335416666664,8.930213928222656L51.42088611111111,114.62113342434168L52.16274375,79.72380980104208L52.16430555555556,71.02544843405485L52.79215138888889,90.38827988505363L53.5262,83.99018599838018L53.86042638888889,125.25910317152739L53.880729861111114,53.09000860154629L53.93226944444445,122.75288607180119L54.04003402777778,70.06350401043892L54.088449999999995,76.88235915452242L54.530440972222216,22.14133407175541L54.66787986111111,15.183831855654716L54.688183333333335,62.368542060256004L54.80063333333333,43.75569190084934L55.03178055555555,121.65712121129036L55.14266875,77.91315566003323L55.21607361111111,95.38195482641459L55.22700625,66.60980920493603L55.762705555555556,29.86972640454769L55.790818055555555,88.42528342455626L56.17658402777778,63.28434332460165L56.565473611111116,89.75477743148804L56.73883402777778,96.12250703573227L56.92468888888889,-10.0918188393116L56.93093611111111,104.96281565353274L57.034015277777776,87.44027401506901L57.14802708333334,105.36445499584079L57.299522222222215,48.02585291862488L57.3213875,-4.738394737243652L57.58220902777778,29.107025742530823L57.59157986111111,122.57431046292186L57.61969236111111,130.47747380286455L57.66186111111111,90.55502298474312L57.69153541666667,-1.6421874314546585L57.719647916666666,80.61732414364815L57.816479861111105,105.31738541275263L58.07105416666667,60.461704686284065L58.19756041666666,51.155160918831825L58.25534722222222,84.79012823849916L58.94566527777778,36.560471311211586L59.31268958333333,44.0797094553709L59.378285416666664,83.55976487696171L59.84057986111111,95.38070201128721L59.86400694444444,81.7588695064187L60.01394027777778,70.28779088705778L60.28881805555556,13.076741874217987L60.51215625,6.196742758154869L60.72768541666667,49.66955955326557L60.81514652777778,127.20640317723155L61.266508333333334,110.73378985002637L61.47422847222222,92.77096941322088L61.56793680555556,120.09086492657661L61.924028472222226,136.33901004865766L62.241075,61.341319374740124L62.40194097222222,96.38646199554205L62.70493125,106.01924211904407L62.864235416666666,118.87270332500339L63.036034027777774,97.8318611830473L63.09225902777778,109.2813650071621L63.285922916666664,131.47650485113263L63.46553055555555,82.4843615591526L64.14023055555556,93.62820486724377L64.40105208333334,116.65377321839333L65.31470833333333,145.06403989344835L65.37093333333334,78.66852405667305L65.44433819444444,98.64433816820383L65.59114791666667,116.1230016052723L65.65362013888888,76.50911255925894L65.75357569444444,78.81364620476961L65.79262083333333,56.60047571361065L65.83478958333333,87.34269949793816L66.23461180555556,133.41932109743357L66.35018541666668,-36.81925807893276L66.66879375,92.67113323509693L66.77343472222222,121.13823815435171L66.89213194444444,-6.070532843470573L67.42002222222222,72.90213252604008L67.48093263888889,141.69482768699527L68.17437430555556,121.53777078911662L68.5210951388889,133.43368231505156L68.69757916666667,117.29981701076031L68.86156875,106.91022115945816L69.71431458333333,104.81469334289432L69.775225,101.43175292015076L70.32654236111111,5.861133366823196L70.92159027777778,67.05192766338587L71.04653472222223,91.19478951394558L71.16835555555556,66.06544125080109L71.24019861111111,101.6003060080111L71.686875,98.64499754458666L72.07264097222222,101.6892624758184L72.37719305555555,146.63935600966215L72.55211527777779,90.21882674843073L72.57710416666666,139.28253215923905L72.69736319444445,70.21084166318178L72.70829583333334,47.65559329837561L72.99098263888888,123.37447359412909L73.17683749999999,92.83155950903893L73.29865833333334,66.42731360346079L74.03583055555556,23.54088681936264L74.42003472222223,93.93498632311821L74.61057500000001,79.01513184607029L74.78549722222222,119.19401743635535L75.23061180555555,88.28336584568024L75.37429791666666,101.94652806222439L75.4430173611111,71.42658005654812L75.58201805555557,96.38977206498384L75.60856875,49.70380096882582L75.98652569444445,139.85171904042363L76.12708819444444,75.67405852675438L77.09072222222221,73.93170918524265L77.1125875,72.1824297979474L77.12508194444445,127.91746477782726L77.51709513888888,96.9644317701459L77.55301666666666,104.3741211220622L77.64828680555556,109.50678930804133L77.81071458333334,111.27841825783253L78.23084027777779,82.11511078476906L78.23552569444445,83.22532917559147L78.32298680555556,94.06410540640354L78.4619875,84.32933624088764L79.03204652777777,101.95707478746772L79.08827152777778,94.54272694140673L79.76140972222223,108.60799336060882L80.08001805555554,130.02275466173887L80.83437013888889,70.03234188258648L80.95775277777778,21.343791961669922L81.10924791666666,114.58236538991332L81.62152013888888,105.28952346369624L81.90889236111111,29.175772324204445L82.22437708333332,54.38703491538763L82.46489513888888,70.8947864100337L82.49769305555556,130.52774136140943L83.39104583333334,139.27303384244442L83.5394173611111,74.62377085536718L83.57377708333334,125.25883942097425L83.90175624999999,70.11810037493706L84.55771458333334,91.90675775706768L84.63424305555556,115.92701186612248L84.79979444444444,81.21235198527575L85.25271805555556,85.30245050042868L85.26365069444444,83.34406967461109L85.47449444444445,75.1840363740921L85.68065277777777,16.748479261994362L85.83370972222222,81.1915882229805L86.26164444444444,70.05181986093521L86.35379097222223,128.41911997832358L86.41313958333333,119.79006401449442L86.67864652777777,117.79631753638387L87.01599652777779,103.92406377196312L87.38926805555556,78.63930049538612L87.42831319444446,94.65447805076838L87.44549305555554,96.8434823602438L87.47204375,114.08432192355394L87.49078541666665,97.80514325201511L87.69382013888888,77.9701389670372L87.77503402777778,113.67966263741255L87.77815763888889,119.68095700442791L88.02648472222224,80.04021815210581L88.24982291666667,-6.007826149463654L88.38257638888889,115.30606064200401L88.96512986111112,102.57347631454468L89.16972638888889,79.75128601491451L90.1849,117.61096353828907L90.75652083333334,74.41115494072437L90.96267916666666,95.2242122143507L91.07512916666667,66.03463518619537L91.11105069444444,52.820475317537785L91.20319722222223,17.02499534189701L91.29378194444445,63.63990544527769L91.29846736111111,110.60495100170374L91.52180555555555,100.53141403198242L92.06999930555556,109.97999076917768L92.31051736111111,122.14066828787327L92.75250833333334,91.13077725470066L92.80560972222221,35.661728113889694L92.86652013888889,65.47311025857925L92.87745277777778,95.53576755523682L92.90712708333334,123.69484809413552L92.93211597222222,50.80665412545204L93.39441041666666,67.61597800254822L93.73332222222223,104.16421524435282L93.78798541666667,83.12979213148355L93.83796319444444,81.62105324864388L94.01444722222223,116.04412040859461L94.02694166666667,105.06571793183684L94.13939166666665,43.64204178750515L94.15969513888889,96.79747107625008L94.18780763888888,70.56704337894917L94.48767430555556,91.98774236440659L94.50173055555555,120.6169615611434L94.8765638888889,28.59210553765297L95.8464451388889,118.60476243495941L95.87299583333333,76.87731492519379L95.93390624999999,129.96625764481723L96.2603236111111,88.49106940627098L97.15211458333334,15.669343873858452L97.30204791666667,53.0499976426363L97.68312847222222,139.57657776027918L98.01110763888889,61.002215288579464L98.03453472222222,107.91628775373101L98.15010833333334,50.56673343479633L98.40624444444444,34.698009967803955L99.00441597222222,67.85460631549358L99.07001180555557,130.98331769183278L99.18246180555555,76.0407377332449L99.48232847222222,57.98735524713993L99.69629583333334,108.97723754122853L100.0633201388889,133.00578001141548L100.48344583333333,101.58770532533526L100.59277222222222,98.79364076256752L101.0082125,94.30459316074848L101.02070694444446,92.56618029624224L101.49705763888889,61.58559854328632L101.5454736111111,75.17058509588242L101.70321597222222,106.94044697284698L102.53409652777778,61.91444273293018L102.78710902777777,87.50234770774841L102.80428888888889,101.38261948898435L103.17443680555554,71.92183765769005L103.64922569444444,115.4731993675232L103.6960798611111,101.46248645335436L103.960025,109.19558343663812L104.03499166666667,101.7345220707357L104.22865555555556,47.36869863420725L104.56444375,67.0741816163063L105.06109791666665,65.12952241301537L105.25476180555555,87.2603961378336L105.46716736111111,26.083231151103973L105.67332569444444,133.67307880148292L105.71705625,90.04547669738531L105.7982701388889,88.22346809506416L106.43861041666666,120.14156437665224L106.62134166666667,138.46443728730083L106.67288125,103.20449951291084L107.1617263888889,120.58017495274544L107.45066041666666,41.87313276529312L107.60684097222223,126.28308172523975L107.7552125,-4.4531617015600204L107.93169652777777,88.71387268602848L108.13629305555554,67.28822837769985L108.58921666666666,82.28153738379478L108.94218472222222,105.70565919578075L109.02652222222223,124.67034270241857L109.23736597222222,79.32610693573952L109.78712152777777,124.59264838322997L109.99796527777778,118.63629051670432L110.04325763888889,45.15140048414469L110.10572986111112,104.39326941221952L110.16507847222222,115.86047749221325L110.29158472222223,108.46664614230394L110.369675,48.055953450500965L110.49774305555556,116.18749850615859L110.82884583333333,126.95355211570859L110.8444638888889,70.0008434727788L111.42389374999999,128.7171894237399L111.57695069444445,83.77567767351866L111.60037777777778,124.26884512603283L111.64410833333334,106.80188561975956L111.67065902777779,93.39759457111359L111.67846805555554,82.66416031122208L111.831525,120.16728994622827L112.07360486111112,85.11603160947561L112.40939305555555,73.96940573304892L112.66709097222221,103.75674701482058L112.71238333333332,117.693866930902L113.15125069444444,70.75230836123228L113.17311597222222,87.95735697448254L113.30430763888889,120.38321593031287L113.5713763888889,108.91862887144089L113.70881527777777,103.53359756246209L113.83688333333333,14.843896955251694L113.84781597222222,101.99976281449199L114.17735694444444,98.77765088528395L114.2210875,128.61535698361695L114.31791944444444,93.29198225587606L114.45535833333334,96.21419332176447L114.53344861111111,74.0815854370594L115.4471048611111,86.84845733642578L116.03278194444445,4.677064821124077L116.54505416666667,110.02051933854818L116.54505416666667,47.83887355774641L116.59034652777777,83.04626233130693L116.99797777777778,81.29652138054371L117.31190069444445,121.53125285357237L117.46339583333334,90.93984163552523L117.5945875,108.93925086781383L117.63675624999999,62.467613361775875L118.0693763888889,45.96446431428194L118.16933194444445,122.09569222480059L118.46295138888888,96.0448654666543L118.63162638888889,85.03186221420765L119.21730347222223,92.62278116494417L119.24697777777777,89.24645758420229L119.40315833333334,132.7553521580994L119.7311375,123.91374456882477L119.93885763888889,88.28955079615116L120.05755486111111,114.92643458023667L120.24497152777778,108.83985647186637L120.48861319444444,98.90455446392298L120.61824305555557,113.99641716107726L121.11645902777776,64.1104166507721L121.43662916666666,119.9850218296051L121.446,107.70261024311185L121.727125,132.11989135667682L121.85206944444445,12.203925356268883L122.34716180555556,123.32964259386063L122.3768361111111,97.88658282905817L122.43306111111112,94.37086048722267L122.63921944444444,126.75962622463703L122.72355694444445,92.10369370132685L123.09839027777777,101.00843987613916L123.24676180555555,89.74069315195084L123.33734652777778,99.62838488817215L123.53257222222221,95.04548824578524L123.89178749999999,106.41468662023544L124.16354166666666,112.84191175550222L124.40093611111112,113.92558365315199L124.9288263888889,97.58123221993446L125.87684236111112,112.66260753571987L125.87684236111112,84.11605435609818L125.98616875,-0.36014874279499054L126.00959583333334,109.70860134065151L126.04083194444445,50.29485936462879L126.37818194444445,88.85491329431534L126.66711597222222,136.70763771235943L126.99353333333333,96.38176064193249L127.00290416666667,67.5423124730587L127.08411805555555,66.71020585298538L127.34181597222222,39.1334502696991L127.78224513888888,85.7167234942317L127.80879583333333,112.10089468583465L128.22267430555556,61.729955814778805L128.66310347222222,105.44908265769482L128.70839583333333,71.0099530890584L128.88331805555555,125.57761823013425L129.07698194444444,54.98504313826561L130.3607861111111,90.45415158569813L130.835575,83.07385063916445L130.9089798611111,111.68987571448088L131.09795833333334,112.32341113686562L131.28068958333333,130.804145347327L131.43062291666666,143.85703164339066L131.51183680555556,132.20549489557743L132.08814305555558,92.90711085498333L132.22245833333332,74.48582931607962L132.29117777777776,137.7934328019619L132.36614444444444,23.04395440220833L132.3989423611111,15.904912680387497L132.69568541666666,62.43311478942633L132.80969722222224,72.52843755483627L133.47815,103.14282803982496L134.06695069444444,113.91144992038608L134.10911944444445,109.60838272422552L134.2200076388889,82.47156306356192L134.84472986111112,107.05945781618357L135.0321465277778,80.48354986310005L135.34606944444445,143.17192969098687L135.76931875,101.5290472023189L135.88333055555555,120.39730020985007L136.17226458333334,129.87016177922487L136.18163541666667,44.28296881914139L136.24879305555555,81.12543299049139L136.5627159722222,53.22501591593027L136.64549166666666,147.97743509709835L137.13902222222222,126.04366875439882L137.34049513888888,90.7259399369359L137.60287847222222,54.77215687930584L137.72001388888887,118.74999667704105L137.96521736111112,119.33306672796607L137.96990277777778,81.8095162063837L138.23853333333335,113.00767897814512L138.2635222222222,112.48717715218663L138.6617826388889,134.10789796337485L138.75705277777777,93.39368446916342L138.97570555555555,129.45592834800482L139.73474305555555,133.38380708545446L139.98463194444446,113.70435628294945L140.09708194444443,127.80047986842692L140.1330034722222,108.92747110873461L140.54375833333333,111.45337059348822L140.57499444444443,103.25962667539716L140.59842152777776,106.56161875650287L140.60623055555556,87.87856149673462L140.66557916666665,86.70295275002718L140.6921298611111,101.76489294692874L141.1497388888889,78.50746478140354L141.33559375000002,53.529271960258484L141.51832499999998,106.84683201089501L142.01029375,90.65280190855265L142.03840624999998,112.5468408241868L142.27892430555556,110.51326801255345L142.27892430555556,140.22737565636635L142.71154444444446,99.18637852370739L142.8224326388889,144.9468291476369L143.05201805555555,113.15003174543381L143.1738388888889,60.84220442175865L143.5252451388889,91.67391876876354L143.62363888888888,121.73951029032469L143.86415694444443,80.91756458580494L143.90944930555554,103.97429836168885L144.0031576388889,107.896628446877L145.02301666666668,112.84123919159174L145.0854888888889,88.07351271808147L145.49312013888888,107.70007823780179L145.79298680555556,106.40771041810513L146.4130236111111,91.13735123723745L146.95809375000002,149.74561880528927L147.03618402777778,45.806649170815945L147.14238680555556,81.81028108298779L147.23765694444444,94.09346084296703L147.28294930555555,39.50519348680973L147.33605069444442,133.27840906754136L147.33917430555556,147.03501810505986L147.93734583333332,104.37805430218577L148.1247625,120.83762516453862L148.28406666666666,105.56940895691514L148.377775,102.60403511300683L148.96501388888888,107.9202011525631L149.04622777777777,97.24842517822981L149.1867902777778,94.3433051481843L149.19772291666666,94.72044206410646L149.22583541666668,131.93729684874415L149.25707152777778,51.227402195334435L149.3304763888889,115.93444633483887L149.36952152777778,148.68049186840653L149.5100840277778,114.49854876101017L149.57724166666668,126.39342176914215L149.69750069444447,103.80734755843878L150.34252638888887,58.9517327696085L150.53306666666666,94.85732200741768L151.14997986111112,111.96709732711315L151.20151944444444,45.40611098706722L151.2499354166667,116.22568958625197L152.01522013888888,141.2015564572066L152.42441319444444,144.3761257007718L152.73365069444444,135.76766370981932L152.83985347222222,147.72929198294878L152.85078611111112,116.98952767252922L153.36462013888888,110.7538744546473L153.5676548611111,92.91759493947029L153.75975694444446,133.82110220566392L153.87376875,109.15548675879836L153.88938680555557,90.82183963805437L153.9409263888889,131.01569636911154L154.06587083333335,123.40681270882487L154.1377138888889,144.34154800325632L154.17519722222224,151.08656617999077L154.32513055555555,144.57961584627628L154.562525,142.66470770537853L155.38872013888889,122.599455781281L155.51210277777778,118.96193013712764L155.71982291666666,145.9110286384821L155.80884583333335,145.19807792454958L156.00875694444446,149.7981150560081L156.3398597222222,145.88281062617898L156.3789048611111,87.64801713824272L156.5132201388889,146.36970074102283L156.5413326388889,138.75932029634714L156.73499652777775,143.80626625567675L157.08640277777778,140.9316160082817L157.10826805555556,143.8560129068792L157.24726875000002,147.5564892143011L157.7048777777778,153.7345162332058L157.72205763888888,145.82668121159077L157.8548111111111,137.02073599398136L157.8548111111111,147.34286445379257L157.9047888888889,154.41118805855513L158.19840833333333,128.9758100286126L158.35927430555554,145.62478675693274L158.75597291666665,153.56956004351377L159.27136875,153.7995307445526L159.79145,139.06087289750576L159.97574305555554,124.78290154784918L160.44740833333333,142.12439161911607L160.55204930555556,132.946742746979L160.71135347222224,153.9944424033165L160.8644104166667,142.73709074780345L161.10024305555555,153.78107479959726L161.11742291666667,146.45949791371822L161.26735625,137.83270525932312L161.54691944444443,144.03139713406563L161.60626805555555,131.17995691671968L161.76401041666668,136.9536840096116L161.83116805555557,150.07519819959998L161.95767430555554,154.37003637850285L162.15133819444446,143.45880457386374L162.45745208333332,140.95363917946815L162.56990208333335,151.58693724498153L162.7323298611111,153.17217367887497L162.85727430555553,147.90988858044147L162.99158958333334,146.58472008258104L163.11341041666668,143.61881214380264L163.46169305555554,142.49090268462896L163.64286249999998,144.55913891270757L163.89118958333333,127.4667843170464L163.96147083333335,152.48253851383924L164.13795486111113,152.5807196572423L164.3769111111111,137.2922836728394L164.93759930555558,153.3095481544733L165.2562076388889,153.70496957749128L165.28588194444447,149.91297512501478L165.29369097222224,153.56584775447845L165.73255833333334,152.95283212512732L165.87780625,145.8277823701501L166.31198819444444,147.09935016185045L166.4056965277778,150.77622409164906L166.46973055555554,153.58676317334175L166.56343888888887,146.85227853432298L166.76803541666666,130.0588588155806L166.9148451388889,141.8058501854539L167.43805,124.81371420621872L167.61921944444444,146.86024380102754L168.0284125,154.4302110671997L168.10806458333332,153.15682999044657L168.7390340277778,153.2496174350381L168.8967763888889,153.0702802464366L169.1310472222222,144.86164431273937L169.52306041666665,153.7706830278039L169.99160208333333,143.10057527571917L170.0634451388889,147.2217831686139L170.1618388888889,154.12690452486277L170.38830069444447,153.08923072367907L170.75376319444445,149.26201897859573L170.78499930555554,151.71743112802505L171.17232708333333,149.66015043854713L171.77362222222223,151.6940562352538L172.04537638888888,150.92820375412703L172.27183819444443,152.24891486763954L172.61855902777776,150.09869507700205L172.6216826388889,140.13272877037525L172.66541319444445,150.3443853110075L172.9418527777778,144.5300472266972L173.0777298611111,150.6900963485241L173.4291361111111,145.047773078084L173.75399166666665,141.6188444495201L174.0132513888889,150.75330416858196L174.0554201388889,152.49540624395013L174.09915069444446,152.72247898578644L174.10227430555557,152.90888798609376L174.31780347222224,148.56491307914257L174.353725,144.2653603591025L174.35528680555555,149.39834174886346L174.5224,154.05151802301407L174.6098611111111,151.20047345012426L175.03935763888887,153.79498764127493L175.50477569444445,153.56213546544313L175.74997916666666,152.6430241316557L176.1841611111111,150.92935766279697L176.48871319444444,147.17144967243075L176.66675902777777,141.36079090833664L176.67612986111112,148.9790476039052L176.90415347222222,141.50061167031527L177.02285069444446,152.31578882038593L177.0447159722222,151.12444735318422L177.20714375,142.8423832654953L177.29304305555556,152.89365968853235L177.3367736111111,154.5879800543189L177.37581875,127.23626468516886L177.7350340277778,153.28741288930178L177.7928208333333,145.25762620568275L178.00210277777776,152.12404216825962L178.03802430555555,153.75793728232384L179.00790555555554,123.65780762583017L179.02508541666668,139.1627795174718L179.02977083333334,151.59362661838531L179.0797486111111,153.5927700921893L179.39367152777777,136.24730727821589L179.55609930555553,140.8165185637772L179.87314583333335,150.47456599026918L179.95435972222222,149.78190428763628L181.33811944444443,134.60328743979335L182.21116875,154.30775827914476L182.5235298611111,153.77155999839306L183.2169715277778,148.71478933095932L183.74486180555556,145.90471840649843L183.82607569444446,150.10158314555883L183.9963125,148.62687138095498L184.68194513888886,153.1132814772427L184.8615527777778,143.58612685650587L184.90059791666664,151.6678460240364L185.07864375,136.12914043664932L185.17547569444446,143.34944700077176L186.01260347222222,154.5038963779807L186.17659305555557,153.6486852094531L186.5201902777778,151.86225655674934L186.5233138888889,153.17629478126764L186.83879861111112,147.58758540451527L186.8606638888889,141.5161037184298L187.15428333333332,145.41598203778267L187.15584513888888,135.83079240471125L187.58221805555556,131.69933780282736L187.62594861111108,153.6509007140994L188.51149236111112,142.75604122504592L188.8113590277778,153.11199239641428L188.91756180555555,152.84809018671513L189.24710277777777,149.43340408802032L189.3408111111111,150.0905913412571L189.53603680555554,138.55056008510292L189.73594791666667,153.45172289013863L189.94054444444447,154.17094427347183L190.64335694444443,146.54596853256226L191.12907847222223,151.1770029477775L191.25402291666668,141.45596199855208L191.55076597222222,154.05218399316072L191.6600923611111,148.99239338189363L192.18954444444446,151.97506266832352L192.92359305555553,153.6629541143775L193.35933680555556,149.6020132228732L193.51707916666666,152.1324294358492L193.92627222222222,149.75377199426293L193.9949916666667,151.8400223851204L194.00592430555554,151.0803680419922L194.24956597222223,149.16319824010134L194.3948138888889,148.0948535464704L194.42136458333334,153.71075230836868L194.76808541666665,152.16314978152514L195.20851458333334,151.72577553614974L195.21788541666666,151.62070061266422L195.3756277777778,147.43008676171303L195.4662125,153.3509108349681L195.94724861111112,154.67330335825682L196.19557569444444,153.10589316487312L196.5516673611111,153.5114590935409L197.64649305555554,149.4236519113183L197.7074034722222,153.68392228335142L198.24622638888889,143.9562150388956L198.41646319444442,149.63852289319038L198.44457569444447,154.38009186834097L198.82721805555553,145.18209793791175L198.87563402777778,152.52801570296288L198.91780277777778,147.5006433315575L199.38946805555554,140.3219434171915L199.87518958333334,148.54950345307589L199.9298527777778,153.86833007633686L199.95327986111113,147.16396245360374L201.04654374999998,139.59548867493868L201.12775763888888,150.5915789231658L201.2402076388889,144.72600070014596L201.36983750000002,152.73908867686987L201.64627708333336,149.8657835572958L201.66345694444445,152.73314110189676L201.7805923611111,151.46469216048717L202.46778680555556,142.33673718944192L202.65676527777777,150.8928249143064L202.73797916666666,152.36573658138514L202.87229444444444,148.10379798710346L202.9269576388889,150.63747811317444L203.1581048611111,150.42778323590755L203.24244236111113,152.22615978866816L203.5985340277778,149.24518509954214L203.68911875,144.56648106873035L204.02803055555557,149.8854395672679L204.55748263888887,144.4455910027027L204.63244930555555,139.6270925849676L205.79755624999999,150.89888128638268L206.81897708333335,154.20165802538395L207.10010208333333,122.64465932920575L207.9138027777778,148.5201051570475L207.99033125,151.41375203803182L207.99970208333335,152.25263045355678L208.18555694444444,141.27376971021295L208.8227736111111,142.51922619715333L208.8930548611111,147.36720862984657L209.12420208333333,132.28068028762937L209.25539375,128.66030832007527L209.25695555555555,132.4363359734416L209.41625972222224,148.55390149354935L209.73799166666666,148.93012187629938L209.74111527777777,152.66750347986817L210.02380208333332,151.08760799467564L210.06284722222222,154.4166608825326L210.29087083333334,152.0310898795724L210.4111298611111,149.89646104350686L210.51108541666667,154.151584982872L210.67351319444444,152.8230866342783L210.79533402777778,150.4418543279171L211.03429027777779,154.15064207464457L211.13424583333332,154.16299878805876L211.64339444444445,154.16940133273602L212.45397152777778,153.88360123336315L212.54299444444445,154.13453350961208L212.55705069444443,152.43328639492393L212.7460291666667,151.1952841579914L213.55504444444443,154.5706054866314L213.55660625000002,153.7384098507464L213.56597708333334,154.16721879690886L213.68155069444444,154.7227565869689L213.81898958333332,153.177662987262L213.91894513888892,154.08223836869L213.96267569444444,154.0717674717307L214.08918194444445,154.00360114127398L214.1375979166667,153.77703282237053L214.3265763888889,149.26475539058447L214.46713888888888,154.2192304059863L214.6842298611111,153.61275579035282L214.79511805555558,154.6954056546092L214.9169388888889,154.17516757920384L214.99034375000002,154.7536285892129L215.6759763888889,154.65246706455946L215.98677569444442,152.78001287207007L216.1070347222222,154.2110673263669L216.2382263888889,154.64518754929304L216.6286777777778,154.6547353193164L216.66147569444445,154.66016198694706L217.12845555555555,154.39692574739456L217.32992847222224,154.21604561805725L217.57200833333334,154.3503671810031L217.7281888888889,154.4543640241027L218.13738194444446,154.31940945982933L218.23265208333333,154.7281898483634L218.72774444444443,153.1609444990754L219.37589375,154.23158052563667L219.54456875,154.22408341616392L219.84912083333333,153.99268186837435L219.92564930555557,150.50357195734978L220.26612291666666,154.5960442274809L220.47071944444443,154.7102614045143L220.48165208333333,154.7441599443555L221.4421625,154.61028016358614L221.52181458333334,154.53461672365665L222.31208819444444,154.7555407807231L222.48076319444442,152.41927134990692L223.11641805555556,154.54516015201807L223.3788013888889,153.80256387591362L223.39129583333332,153.12346554547548L223.95823124999998,153.99624909460545L224.07224305555553,154.77854642271996L224.51579583333333,154.6355474665761L224.61575138888887,153.57834953069687L224.63761666666667,140.57315263152122L224.66260555555553,149.7078958824277L225.12958541666666,154.81077674031258L225.2404736111111,154.63083292543888L225.3107548611111,154.29443228244781L225.65122847222221,153.90575627982616L225.7121388888889,154.17141902446747L226.2103548611111,154.6923263669014L226.4821090277778,154.77213069051504L226.49772708333333,154.74328956753016L226.65234583333333,154.75855413079262L227.1411909722222,154.59446831792593L227.30830416666666,153.93792725354433L227.3957652777778,154.4741848781705L227.4925972222222,154.2521530687809L227.78621666666666,154.04944098740816L227.86586875,154.74886129796505L227.87523958333333,154.79003275930882L228.0767125,154.588283367455L228.28911805555555,154.7865578457713L228.4812201388889,154.27231679856777L228.7764013888889,154.8289029970765L228.83887361111113,152.8853680305183L228.96225625,154.18464281782508L229.14811111111112,154.1609810963273L229.8165638888889,154.58137310296297L229.91651944444445,154.2308618053794L230.05552013888888,154.65892235934734L230.1258013888889,147.91724062711L230.45690416666665,154.5509527735412L230.68336597222222,154.10440660268068L230.72865833333333,154.55052088201046L231.1440986111111,153.43911561369896L231.51112291666666,154.77579022943974L231.71884305555554,154.26555159687996L231.88595625,154.44771751016378L232.75900555555555,145.75769725441933L232.87145555555554,154.60851303488016L232.98390555555557,153.86844217032194L233.02763611111112,154.59314297139645L233.1541423611111,153.92466060072184L233.45869444444443,153.88248029351234L233.57739166666667,154.28394160419703L233.5867625,150.31406718492508L234.06623680555558,154.4990895241499L234.28176597222222,154.79978493601084L234.29894583333333,154.48641631007195L234.39421597222224,154.19753692299128L234.43638472222221,153.69728784263134L234.6862736111111,153.33790793269873L235.01581458333334,151.49369812756777L236.08721319444444,154.5598576515913L236.23402291666667,154.12526597455144L236.24495555555555,154.16750232875347L236.30118055555553,137.65405382215977L236.4995298611111,154.64117854088545L236.50733888888888,154.66701950132847L236.84937430555553,154.57430458813906L237.35383750000003,154.76922284066677L237.5615576388889,154.50414694100618L238.09100972222222,153.14460515230894L238.14567291666665,154.60916581749916L238.38931458333332,154.2517112866044L238.44397777777777,154.26800447702408L238.64545069444443,154.52258969843388L238.71885555555556,154.77274391055107L239.05464375000003,154.8160055950284L239.1983298611111,154.75018664449453L239.2092625,153.86774323135614L239.35763402777778,154.09568305313587L239.47164583333333,154.46431401371956L239.6902986111111,154.74648754298687L239.80118680555557,154.76958549767733L239.8386701388889,154.7408498749137L239.8636590277778,154.63317371159792L240.24005416666668,153.97754918038845L240.24473958333334,154.40315026044846L240.36812222222224,154.69389568269253L240.3696840277778,154.84001348912716L240.4384034722222,154.70444570481777L240.74451736111112,154.54279958456755L241.05531666666667,154.57137036323547L241.07874375,154.33273545652628L241.45045347222222,153.76251335442066L241.51292569444445,153.7631991058588L241.69721875,154.75033170729876L242.01426527777778,154.54905706644058L242.0173888888889,154.67338907718658L242.3469298611111,154.5662008523941L242.5437173611111,154.47718504071236L242.71707777777777,154.8389518931508L242.75299930555553,153.13318475335836L242.9029326388889,154.47119790315628L243.00601180555554,153.3979705274105L243.02943888888888,154.72731947153807L243.2965076388889,154.85892440378666L243.69945347222225,152.4757864996791L243.7041388888889,154.59990817308426L243.91185902777778,153.98986633121967L243.9352861111111,154.60249952226877L244.22890555555554,154.60828884691L244.3757152777778,154.31633676588535L244.84425694444442,154.59582663327456L245.0347972222222,154.17148166522384L245.7422951388889,154.76042675971985L245.96563333333333,154.58097747713327L246.29985972222224,153.73417995125055L246.30142152777776,154.66314896196127L246.39669166666664,154.09707433730364L246.6871875,154.2268791720271L247.3650111111111,154.85573302209377L247.88977777777777,154.69648703187704L248.37706111111112,154.7354429885745L248.40048819444445,154.81258343160152L248.61601736111112,154.6483723372221L248.91119861111113,154.81123171001673L249.01427777777778,154.73698592931032L249.14703125,153.90255830436945L249.4781340277778,154.75254721194506L249.48438124999998,154.8180364742875L249.49999930555555,154.75394508987665L249.80455138888888,153.97369842231274L250.24341875,154.22357569634914L250.28246388888888,154.72288846224546L250.37304861111113,153.25972567498684L250.59638680555557,153.94119116663933L250.8868826388889,154.58610742539167L251.0899173611111,154.8248214572668L251.21954722222222,153.78381780534983L251.63030208333333,154.7733109742403L251.95984305555555,154.47804882377386L252.3159347222222,154.68657660484314L252.7844763888889,154.13876670598984L253.24989444444444,154.71117134392262L253.57475,154.1341378837824L253.63253680555556,154.61713108420372L253.70594166666666,154.2904892116785L254.21352847222224,154.62175990641117L254.2775625,153.96652440726757L254.73985694444443,154.79922446608543L254.7585986111111,154.7999365925789L254.95070069444444,153.9611010365188L255.12406111111113,154.63124833256006L255.46141111111112,154.4612017571926L255.46765833333333,154.4660943299532L255.6581986111111,154.60766903311014L256.7311590277778,154.73115704208612L256.86859791666666,154.80311478674412L256.8982722222222,153.11119455099106L256.94668819444445,154.72195214778185L257.11536319444446,154.79487258195877L257.20282430555557,154.36595483869314L257.58546666666666,154.7976749315858L257.65418611111113,153.85459196940064L257.6869840277778,154.67972568422556L258.3366951388889,153.5665598809719L258.3976055555555,153.72778400033712L259.8422756944444,154.7730274423957L259.8532083333333,154.4465306326747L260.05468125,154.51157811284065L260.2998847222222,154.19625113904476L260.6872125,154.67040210217237L260.82308958333334,153.65916929394007L260.9995736111111,153.2417609654367L261.92260069444444,154.7083228379488L262.05066875,154.69360555708408L262.91747083333337,154.7428082227707L263.0720895833333,154.22520435601473L263.3094840277778,154.6996520385146L263.36727083333335,154.82337742298841L263.3985069444445,154.75153836607933L264.201275,154.24859903007746L264.22001666666665,153.97036857157946L264.2684326388889,154.54878672212362L264.76196319444443,154.6702702268958L264.85879513888887,154.68413031846285L265.10556041666666,154.80499400943518L265.15553819444443,153.9863716363907L265.8817777777778,154.696335375309" fill="none"></path></g></g></g></g></g></g><g transform="translate(48, 177)" clip-path="url(#clip_1)"><clipPath id="clip_1"><rect width="281" height="23"></rect></clipPath><g><g><line x1="0" y1="0" x2="0" y2="5" style="visibility: inherit;" fill="rgb(0, 0, 0)" stroke="rgb(204, 204, 204)" stroke-width="1px"></line><line x1="31.23611111111111" y1="0" x2="31.23611111111111" y2="5" style="visibility: inherit;" fill="rgb(0, 0, 0)" stroke="rgb(204, 204, 204)" stroke-width="1px"></line><line x1="62.47222222222222" y1="0" x2="62.47222222222222" y2="5" style="visibility: inherit;" fill="rgb(0, 0, 0)" stroke="rgb(204, 204, 204)" stroke-width="1px"></line><line x1="93.70833333333333" y1="0" x2="93.70833333333333" y2="5" style="visibility: inherit;" fill="rgb(0, 0, 0)" stroke="rgb(204, 204, 204)" stroke-width="1px"></line><line x1="124.94444444444444" y1="0" x2="124.94444444444444" y2="5" style="visibility: inherit;" fill="rgb(0, 0, 0)" stroke="rgb(204, 204, 204)" stroke-width="1px"></line><line x1="156.18055555555557" y1="0" x2="156.18055555555557" y2="5" style="visibility: inherit;" fill="rgb(0, 0, 0)" stroke="rgb(204, 204, 204)" stroke-width="1px"></line><line x1="187.41666666666666" y1="0" x2="187.41666666666666" y2="5" style="visibility: inherit;" fill="rgb(0, 0, 0)" stroke="rgb(204, 204, 204)" stroke-width="1px"></line><line x1="218.65277777777777" y1="0" x2="218.65277777777777" y2="5" style="visibility: inherit;" fill="rgb(0, 0, 0)" stroke="rgb(204, 204, 204)" stroke-width="1px"></line><line x1="249.88888888888889" y1="0" x2="249.88888888888889" y2="5" style="visibility: inherit;" fill="rgb(0, 0, 0)" stroke="rgb(204, 204, 204)" stroke-width="1px"></line><line x1="281.125" y1="0" x2="281.125" y2="5" style="visibility: inherit;" fill="rgb(0, 0, 0)" stroke="rgb(204, 204, 204)" stroke-width="1px"></line></g><g transform="translate(0, 8)"><text x="0" y="0" dx="0em" dy="0.95em" style="text-anchor: middle; visibility: hidden; font-family: &quot;Helvetica Neue&quot;, sans-serif; font-size: 12px; font-weight: 200;" fill="rgb(50, 49, 63)" stroke="none" stroke-width="1px">-20k</text><text x="31.23611111111111" y="0" dx="0em" dy="0.95em" style="text-anchor: middle; visibility: inherit; font-family: &quot;Helvetica Neue&quot;, sans-serif; font-size: 12px; font-weight: 200;" fill="rgb(50, 49, 63)" stroke="none" stroke-width="1px">0</text><text x="62.47222222222222" y="0" dx="0em" dy="0.95em" style="text-anchor: middle; visibility: inherit; font-family: &quot;Helvetica Neue&quot;, sans-serif; font-size: 12px; font-weight: 200;" fill="rgb(50, 49, 63)" stroke="none" stroke-width="1px">20k</text><text x="93.70833333333333" y="0" dx="0em" dy="0.95em" style="text-anchor: middle; visibility: inherit; font-family: &quot;Helvetica Neue&quot;, sans-serif; font-size: 12px; font-weight: 200;" fill="rgb(50, 49, 63)" stroke="none" stroke-width="1px">40k</text><text x="124.94444444444444" y="0" dx="0em" dy="0.95em" style="text-anchor: middle; visibility: inherit; font-family: &quot;Helvetica Neue&quot;, sans-serif; font-size: 12px; font-weight: 200;" fill="rgb(50, 49, 63)" stroke="none" stroke-width="1px">60k</text><text x="156.18055555555557" y="0" dx="0em" dy="0.95em" style="text-anchor: middle; visibility: inherit; font-family: &quot;Helvetica Neue&quot;, sans-serif; font-size: 12px; font-weight: 200;" fill="rgb(50, 49, 63)" stroke="none" stroke-width="1px">80k</text><text x="187.41666666666666" y="0" dx="0em" dy="0.95em" style="text-anchor: middle; visibility: inherit; font-family: &quot;Helvetica Neue&quot;, sans-serif; font-size: 12px; font-weight: 200;" fill="rgb(50, 49, 63)" stroke="none" stroke-width="1px">100k</text><text x="218.65277777777777" y="0" dx="0em" dy="0.95em" style="text-anchor: middle; visibility: inherit; font-family: &quot;Helvetica Neue&quot;, sans-serif; font-size: 12px; font-weight: 200;" fill="rgb(50, 49, 63)" stroke="none" stroke-width="1px">120k</text><text x="249.88888888888889" y="0" dx="0em" dy="0.95em" style="text-anchor: middle; visibility: inherit; font-family: &quot;Helvetica Neue&quot;, sans-serif; font-size: 12px; font-weight: 200;" fill="rgb(50, 49, 63)" stroke="none" stroke-width="1px">140k</text><text x="281.125" y="0" dx="0em" dy="0.95em" style="text-anchor: middle; visibility: hidden; font-family: &quot;Helvetica Neue&quot;, sans-serif; font-size: 12px; font-weight: 200;" fill="rgb(50, 49, 63)" stroke="none" stroke-width="1px">160k</text></g><line x1="0" y1="0" x2="281.125" y2="0" fill="rgb(0, 0, 0)" stroke="rgb(204, 204, 204)" stroke-width="1px"></line></g></g></g></g></svg>